<svg id="mermaid-1591727501008" width="100%" xmlns="http://www.w3.org/2000/svg" height="100%" viewBox="0 0 1284 2596"><style>#mermaid-1591727501008 .label{font-family:trebuchet ms,verdana,arial;color:#333}#mermaid-1591727501008 .node circle,#mermaid-1591727501008 .node ellipse,#mermaid-1591727501008 .node polygon,#mermaid-1591727501008 .node rect{fill:#eee;stroke:#999;stroke-width:1px}#mermaid-1591727501008 .node.clickable{cursor:pointer}#mermaid-1591727501008 .arrowheadPath{fill:#333}#mermaid-1591727501008 .edgePath .path{stroke:#666;stroke-width:1.5px}#mermaid-1591727501008 .edgeLabel{background-color:#fff}#mermaid-1591727501008 .cluster rect{fill:#eaf2fb!important;stroke:#26a!important;stroke-width:1px!important}#mermaid-1591727501008 .cluster text{fill:#333}#mermaid-1591727501008 div.mermaidTooltip{position:absolute;text-align:center;max-width:200px;padding:2px;font-family:trebuchet ms,verdana,arial;font-size:12px;background:#eaf2fb;border:1px solid #26a;border-radius:2px;pointer-events:none;z-index:100}#mermaid-1591727501008 .actor{stroke:#999;fill:#eee}#mermaid-1591727501008 text.actor{fill:#333;stroke:none}#mermaid-1591727501008 .actor-line{stroke:#666}#mermaid-1591727501008 .messageLine0{marker-end:"url(#arrowhead)"}#mermaid-1591727501008 .messageLine0,#mermaid-1591727501008 .messageLine1{stroke-width:1.5;stroke-dasharray:"2 2";stroke:#333}#mermaid-1591727501008 #arrowhead{fill:#333}#mermaid-1591727501008 #crosshead path{fill:#333!important;stroke:#333!important}#mermaid-1591727501008 .messageText{fill:#333;stroke:none}#mermaid-1591727501008 .labelBox{stroke:#999;fill:#eee}#mermaid-1591727501008 .labelText,#mermaid-1591727501008 .loopText{fill:#fff;stroke:none}#mermaid-1591727501008 .loopLine{stroke-width:2;stroke-dasharray:"2 2";marker-end:"url(#arrowhead)";stroke:#999}#mermaid-1591727501008 .note{stroke:#770;fill:#ffa}#mermaid-1591727501008 .noteText{fill:#000;stroke:none;font-family:trebuchet ms,verdana,arial;font-size:14px}#mermaid-1591727501008 .section{stroke:none;opacity:.2}#mermaid-1591727501008 .section0,#mermaid-1591727501008 .section2{fill:#80b3e6}#mermaid-1591727501008 .section1,#mermaid-1591727501008 .section3{fill:#fff;opacity:.2}#mermaid-1591727501008 .sectionTitle0,#mermaid-1591727501008 .sectionTitle1,#mermaid-1591727501008 .sectionTitle2,#mermaid-1591727501008 .sectionTitle3{fill:#333}#mermaid-1591727501008 .sectionTitle{text-anchor:start;font-size:11px;text-height:14px}#mermaid-1591727501008 .grid .tick{stroke:#e6e6e6;opacity:.3;shape-rendering:crispEdges}#mermaid-1591727501008 .grid path{stroke-width:0}#mermaid-1591727501008 .today{fill:none;stroke:#d42;stroke-width:2px}#mermaid-1591727501008 .task{stroke-width:2}#mermaid-1591727501008 .taskText{text-anchor:middle;font-size:11px}#mermaid-1591727501008 .taskTextOutsideRight{fill:#333;text-anchor:start;font-size:11px}#mermaid-1591727501008 .taskTextOutsideLeft{fill:#333;text-anchor:end;font-size:11px}#mermaid-1591727501008 .taskText0,#mermaid-1591727501008 .taskText1,#mermaid-1591727501008 .taskText2,#mermaid-1591727501008 .taskText3{fill:#fff}#mermaid-1591727501008 .task0,#mermaid-1591727501008 .task1,#mermaid-1591727501008 .task2,#mermaid-1591727501008 .task3{fill:#26a;stroke:#1a4d80}#mermaid-1591727501008 .taskTextOutside0,#mermaid-1591727501008 .taskTextOutside1,#mermaid-1591727501008 .taskTextOutside2,#mermaid-1591727501008 .taskTextOutside3{fill:#333}#mermaid-1591727501008 .active0,#mermaid-1591727501008 .active1,#mermaid-1591727501008 .active2,#mermaid-1591727501008 .active3{fill:#eee;stroke:#1a4d80}#mermaid-1591727501008 .activeText0,#mermaid-1591727501008 .activeText1,#mermaid-1591727501008 .activeText2,#mermaid-1591727501008 .activeText3{fill:#333!important}#mermaid-1591727501008 .done0,#mermaid-1591727501008 .done1,#mermaid-1591727501008 .done2,#mermaid-1591727501008 .done3{stroke:#666;fill:#bbb;stroke-width:2}#mermaid-1591727501008 .doneText0,#mermaid-1591727501008 .doneText1,#mermaid-1591727501008 .doneText2,#mermaid-1591727501008 .doneText3{fill:#333!important}#mermaid-1591727501008 .crit0,#mermaid-1591727501008 .crit1,#mermaid-1591727501008 .crit2,#mermaid-1591727501008 .crit3{stroke:#b1361b;fill:#d42;stroke-width:2}#mermaid-1591727501008 .activeCrit0,#mermaid-1591727501008 .activeCrit1,#mermaid-1591727501008 .activeCrit2,#mermaid-1591727501008 .activeCrit3{stroke:#b1361b;fill:#eee;stroke-width:2}#mermaid-1591727501008 .doneCrit0,#mermaid-1591727501008 .doneCrit1,#mermaid-1591727501008 .doneCrit2,#mermaid-1591727501008 .doneCrit3{stroke:#b1361b;fill:#bbb;stroke-width:2;cursor:pointer;shape-rendering:crispEdges}#mermaid-1591727501008 .activeCritText0,#mermaid-1591727501008 .activeCritText1,#mermaid-1591727501008 .activeCritText2,#mermaid-1591727501008 .activeCritText3,#mermaid-1591727501008 .doneCritText0,#mermaid-1591727501008 .doneCritText1,#mermaid-1591727501008 .doneCritText2,#mermaid-1591727501008 .doneCritText3{fill:#333!important}#mermaid-1591727501008 .titleText{text-anchor:middle;font-size:18px;fill:#333}#mermaid-1591727501008 g.classGroup text{fill:#999;stroke:none;font-family:trebuchet ms,verdana,arial;font-size:10px}#mermaid-1591727501008 g.classGroup rect{fill:#eee;stroke:#999}#mermaid-1591727501008 g.classGroup line{stroke:#999;stroke-width:1}#mermaid-1591727501008 .classLabel .box{stroke:none;stroke-width:0;fill:#eee;opacity:.5}#mermaid-1591727501008 .classLabel .label{fill:#999;font-size:10px}#mermaid-1591727501008 .relation{stroke:#999;stroke-width:1;fill:none}#mermaid-1591727501008 #compositionEnd,#mermaid-1591727501008 #compositionStart{fill:#999;stroke:#999;stroke-width:1}#mermaid-1591727501008 #aggregationEnd,#mermaid-1591727501008 #aggregationStart{fill:#eee;stroke:#999;stroke-width:1}#mermaid-1591727501008 #dependencyEnd,#mermaid-1591727501008 #dependencyStart,#mermaid-1591727501008 #extensionEnd,#mermaid-1591727501008 #extensionStart{fill:#999;stroke:#999;stroke-width:1}#mermaid-1591727501008 .branch-label,#mermaid-1591727501008 .commit-id,#mermaid-1591727501008 .commit-msg{fill:#d3d3d3;color:#d3d3d3}</style><style>#mermaid-1591727501008 {
    color: rgb(0, 0, 0);
    font: normal normal 400 normal 16px / normal "Times New Roman";
  }</style><g></g><g class="grid" transform="translate(75, 2546)" fill="none" font-size="10" font-family="sans-serif" text-anchor="middle"><path class="domain" stroke="#000" d="M0.5,-2511V0.5H1134.5V-2511"></path><g class="tick" opacity="1" transform="translate(33.5,0)"><line stroke="#000" y2="-2511"></line><text fill="#000" y="3" dy="1em" stroke="none" font-size="10" style="text-anchor: middle;">05-29</text></g><g class="tick" opacity="1" transform="translate(100.5,0)"><line stroke="#000" y2="-2511"></line><text fill="#000" y="3" dy="1em" stroke="none" font-size="10" style="text-anchor: middle;">05-31</text></g><g class="tick" opacity="1" transform="translate(133.5,0)"><line stroke="#000" y2="-2511"></line><text fill="#000" y="3" dy="1em" stroke="none" font-size="10" style="text-anchor: middle;">06-01</text></g><g class="tick" opacity="1" transform="translate(200.5,0)"><line stroke="#000" y2="-2511"></line><text fill="#000" y="3" dy="1em" stroke="none" font-size="10" style="text-anchor: middle;">06-03</text></g><g class="tick" opacity="1" transform="translate(267.5,0)"><line stroke="#000" y2="-2511"></line><text fill="#000" y="3" dy="1em" stroke="none" font-size="10" style="text-anchor: middle;">06-05</text></g><g class="tick" opacity="1" transform="translate(334.5,0)"><line stroke="#000" y2="-2511"></line><text fill="#000" y="3" dy="1em" stroke="none" font-size="10" style="text-anchor: middle;">06-07</text></g><g class="tick" opacity="1" transform="translate(400.5,0)"><line stroke="#000" y2="-2511"></line><text fill="#000" y="3" dy="1em" stroke="none" font-size="10" style="text-anchor: middle;">06-09</text></g><g class="tick" opacity="1" transform="translate(467.5,0)"><line stroke="#000" y2="-2511"></line><text fill="#000" y="3" dy="1em" stroke="none" font-size="10" style="text-anchor: middle;">06-11</text></g><g class="tick" opacity="1" transform="translate(534.5,0)"><line stroke="#000" y2="-2511"></line><text fill="#000" y="3" dy="1em" stroke="none" font-size="10" style="text-anchor: middle;">06-13</text></g><g class="tick" opacity="1" transform="translate(600.5,0)"><line stroke="#000" y2="-2511"></line><text fill="#000" y="3" dy="1em" stroke="none" font-size="10" style="text-anchor: middle;">06-15</text></g><g class="tick" opacity="1" transform="translate(667.5,0)"><line stroke="#000" y2="-2511"></line><text fill="#000" y="3" dy="1em" stroke="none" font-size="10" style="text-anchor: middle;">06-17</text></g><g class="tick" opacity="1" transform="translate(734.5,0)"><line stroke="#000" y2="-2511"></line><text fill="#000" y="3" dy="1em" stroke="none" font-size="10" style="text-anchor: middle;">06-19</text></g><g class="tick" opacity="1" transform="translate(800.5,0)"><line stroke="#000" y2="-2511"></line><text fill="#000" y="3" dy="1em" stroke="none" font-size="10" style="text-anchor: middle;">06-21</text></g><g class="tick" opacity="1" transform="translate(867.5,0)"><line stroke="#000" y2="-2511"></line><text fill="#000" y="3" dy="1em" stroke="none" font-size="10" style="text-anchor: middle;">06-23</text></g><g class="tick" opacity="1" transform="translate(934.5,0)"><line stroke="#000" y2="-2511"></line><text fill="#000" y="3" dy="1em" stroke="none" font-size="10" style="text-anchor: middle;">06-25</text></g><g class="tick" opacity="1" transform="translate(1001.5,0)"><line stroke="#000" y2="-2511"></line><text fill="#000" y="3" dy="1em" stroke="none" font-size="10" style="text-anchor: middle;">06-27</text></g><g class="tick" opacity="1" transform="translate(1067.5,0)"><line stroke="#000" y2="-2511"></line><text fill="#000" y="3" dy="1em" stroke="none" font-size="10" style="text-anchor: middle;">06-29</text></g><g class="tick" opacity="1" transform="translate(1134.5,0)"><line stroke="#000" y2="-2511"></line><text fill="#000" y="3" dy="1em" stroke="none" font-size="10" style="text-anchor: middle;">07-01</text></g></g><g><rect x="0" y="48" width="1246.5" height="24" class="section section0"></rect><rect x="0" y="72" width="1246.5" height="24" class="section section0"></rect><rect x="0" y="96" width="1246.5" height="24" class="section section0"></rect><rect x="0" y="120" width="1246.5" height="24" class="section section0"></rect><rect x="0" y="144" width="1246.5" height="24" class="section section1"></rect><rect x="0" y="168" width="1246.5" height="24" class="section section1"></rect><rect x="0" y="192" width="1246.5" height="24" class="section section1"></rect><rect x="0" y="216" width="1246.5" height="24" class="section section1"></rect><rect x="0" y="240" width="1246.5" height="24" class="section section2"></rect><rect x="0" y="264" width="1246.5" height="24" class="section section2"></rect><rect x="0" y="288" width="1246.5" height="24" class="section section2"></rect><rect x="0" y="312" width="1246.5" height="24" class="section section2"></rect><rect x="0" y="336" width="1246.5" height="24" class="section section3"></rect><rect x="0" y="360" width="1246.5" height="24" class="section section3"></rect><rect x="0" y="384" width="1246.5" height="24" class="section section3"></rect><rect x="0" y="408" width="1246.5" height="24" class="section section3"></rect><rect x="0" y="432" width="1246.5" height="24" class="section section0"></rect><rect x="0" y="456" width="1246.5" height="24" class="section section0"></rect><rect x="0" y="480" width="1246.5" height="24" class="section section0"></rect><rect x="0" y="504" width="1246.5" height="24" class="section section0"></rect><rect x="0" y="528" width="1246.5" height="24" class="section section1"></rect><rect x="0" y="552" width="1246.5" height="24" class="section section1"></rect><rect x="0" y="576" width="1246.5" height="24" class="section section1"></rect><rect x="0" y="600" width="1246.5" height="24" class="section section1"></rect><rect x="0" y="624" width="1246.5" height="24" class="section section2"></rect><rect x="0" y="648" width="1246.5" height="24" class="section section2"></rect><rect x="0" y="672" width="1246.5" height="24" class="section section2"></rect><rect x="0" y="696" width="1246.5" height="24" class="section section2"></rect><rect x="0" y="720" width="1246.5" height="24" class="section section3"></rect><rect x="0" y="744" width="1246.5" height="24" class="section section3"></rect><rect x="0" y="768" width="1246.5" height="24" class="section section3"></rect><rect x="0" y="792" width="1246.5" height="24" class="section section3"></rect><rect x="0" y="816" width="1246.5" height="24" class="section section0"></rect><rect x="0" y="840" width="1246.5" height="24" class="section section0"></rect><rect x="0" y="864" width="1246.5" height="24" class="section section0"></rect><rect x="0" y="888" width="1246.5" height="24" class="section section0"></rect><rect x="0" y="912" width="1246.5" height="24" class="section section0"></rect><rect x="0" y="936" width="1246.5" height="24" class="section section1"></rect><rect x="0" y="960" width="1246.5" height="24" class="section section1"></rect><rect x="0" y="984" width="1246.5" height="24" class="section section1"></rect><rect x="0" y="1008" width="1246.5" height="24" class="section section1"></rect><rect x="0" y="1032" width="1246.5" height="24" class="section section2"></rect><rect x="0" y="1056" width="1246.5" height="24" class="section section2"></rect><rect x="0" y="1080" width="1246.5" height="24" class="section section2"></rect><rect x="0" y="1104" width="1246.5" height="24" class="section section2"></rect><rect x="0" y="1128" width="1246.5" height="24" class="section section2"></rect><rect x="0" y="1152" width="1246.5" height="24" class="section section2"></rect><rect x="0" y="1176" width="1246.5" height="24" class="section section3"></rect><rect x="0" y="1200" width="1246.5" height="24" class="section section3"></rect><rect x="0" y="1224" width="1246.5" height="24" class="section section3"></rect><rect x="0" y="1248" width="1246.5" height="24" class="section section3"></rect><rect x="0" y="1272" width="1246.5" height="24" class="section section0"></rect><rect x="0" y="1296" width="1246.5" height="24" class="section section0"></rect><rect x="0" y="1320" width="1246.5" height="24" class="section section0"></rect><rect x="0" y="1344" width="1246.5" height="24" class="section section0"></rect><rect x="0" y="1368" width="1246.5" height="24" class="section section1"></rect><rect x="0" y="1392" width="1246.5" height="24" class="section section1"></rect><rect x="0" y="1416" width="1246.5" height="24" class="section section1"></rect><rect x="0" y="1440" width="1246.5" height="24" class="section section1"></rect><rect x="0" y="1464" width="1246.5" height="24" class="section section2"></rect><rect x="0" y="1488" width="1246.5" height="24" class="section section2"></rect><rect x="0" y="1512" width="1246.5" height="24" class="section section2"></rect><rect x="0" y="1536" width="1246.5" height="24" class="section section2"></rect><rect x="0" y="1560" width="1246.5" height="24" class="section section3"></rect><rect x="0" y="1584" width="1246.5" height="24" class="section section3"></rect><rect x="0" y="1608" width="1246.5" height="24" class="section section3"></rect><rect x="0" y="1632" width="1246.5" height="24" class="section section3"></rect><rect x="0" y="1656" width="1246.5" height="24" class="section section0"></rect><rect x="0" y="1680" width="1246.5" height="24" class="section section0"></rect><rect x="0" y="1704" width="1246.5" height="24" class="section section0"></rect><rect x="0" y="1728" width="1246.5" height="24" class="section section0"></rect><rect x="0" y="1752" width="1246.5" height="24" class="section section1"></rect><rect x="0" y="1776" width="1246.5" height="24" class="section section1"></rect><rect x="0" y="1800" width="1246.5" height="24" class="section section1"></rect><rect x="0" y="1824" width="1246.5" height="24" class="section section1"></rect><rect x="0" y="1848" width="1246.5" height="24" class="section section2"></rect><rect x="0" y="1872" width="1246.5" height="24" class="section section2"></rect><rect x="0" y="1896" width="1246.5" height="24" class="section section2"></rect><rect x="0" y="1920" width="1246.5" height="24" class="section section2"></rect><rect x="0" y="1944" width="1246.5" height="24" class="section section3"></rect><rect x="0" y="1968" width="1246.5" height="24" class="section section3"></rect><rect x="0" y="1992" width="1246.5" height="24" class="section section3"></rect><rect x="0" y="2016" width="1246.5" height="24" class="section section3"></rect><rect x="0" y="2040" width="1246.5" height="24" class="section section0"></rect><rect x="0" y="2064" width="1246.5" height="24" class="section section0"></rect><rect x="0" y="2088" width="1246.5" height="24" class="section section1"></rect><rect x="0" y="2112" width="1246.5" height="24" class="section section1"></rect><rect x="0" y="2136" width="1246.5" height="24" class="section section2"></rect><rect x="0" y="2160" width="1246.5" height="24" class="section section2"></rect><rect x="0" y="2184" width="1246.5" height="24" class="section section2"></rect><rect x="0" y="2208" width="1246.5" height="24" class="section section2"></rect><rect x="0" y="2232" width="1246.5" height="24" class="section section3"></rect><rect x="0" y="2256" width="1246.5" height="24" class="section section3"></rect><rect x="0" y="2280" width="1246.5" height="24" class="section section3"></rect><rect x="0" y="2304" width="1246.5" height="24" class="section section3"></rect><rect x="0" y="2328" width="1246.5" height="24" class="section section3"></rect><rect x="0" y="2352" width="1246.5" height="24" class="section section0"></rect><rect x="0" y="2376" width="1246.5" height="24" class="section section0"></rect><rect x="0" y="2400" width="1246.5" height="24" class="section section0"></rect><rect x="0" y="2424" width="1246.5" height="24" class="section section0"></rect><rect x="0" y="2448" width="1246.5" height="24" class="section section1"></rect><rect x="0" y="2472" width="1246.5" height="24" class="section section1"></rect><rect x="0" y="2496" width="1246.5" height="24" class="section section1"></rect><rect x="0" y="2520" width="1246.5" height="24" class="section section1"></rect></g><g><rect rx="3" ry="3" x="75" y="50" width="33" height="20" class="task  done0"></rect><rect rx="3" ry="3" x="108" y="74" width="701" height="20" class="task  active0"></rect><rect rx="3" ry="3" x="809" y="98" width="33" height="20" class="task  task0"></rect><rect rx="3" ry="3" x="842" y="122" width="33" height="20" class="task  task0"></rect><rect rx="3" ry="3" x="75" y="146" width="33" height="20" class="task  done1"></rect><rect rx="3" ry="3" x="108" y="170" width="701" height="20" class="task  active1"></rect><rect rx="3" ry="3" x="809" y="194" width="33" height="20" class="task  task1"></rect><rect rx="3" ry="3" x="842" y="218" width="33" height="20" class="task  task1"></rect><rect rx="3" ry="3" x="75" y="242" width="33" height="20" class="task  done2"></rect><rect rx="3" ry="3" x="108" y="266" width="701" height="20" class="task  active2"></rect><rect rx="3" ry="3" x="809" y="290" width="33" height="20" class="task  task2"></rect><rect rx="3" ry="3" x="842" y="314" width="33" height="20" class="task  task2"></rect><rect rx="3" ry="3" x="75" y="338" width="33" height="20" class="task  done3"></rect><rect rx="3" ry="3" x="108" y="362" width="701" height="20" class="task  active3"></rect><rect rx="3" ry="3" x="809" y="386" width="33" height="20" class="task  task3"></rect><rect rx="3" ry="3" x="842" y="410" width="33" height="20" class="task  task3"></rect><rect rx="3" ry="3" x="75" y="434" width="33" height="20" class="task  done0"></rect><rect rx="3" ry="3" x="108" y="458" width="701" height="20" class="task  active0"></rect><rect rx="3" ry="3" x="809" y="482" width="33" height="20" class="task  task0"></rect><rect rx="3" ry="3" x="842" y="506" width="33" height="20" class="task  task0"></rect><rect rx="3" ry="3" x="75" y="530" width="33" height="20" class="task  done1"></rect><rect rx="3" ry="3" x="108" y="554" width="701" height="20" class="task  active1"></rect><rect rx="3" ry="3" x="809" y="578" width="33" height="20" class="task  task1"></rect><rect rx="3" ry="3" x="842" y="602" width="33" height="20" class="task  task1"></rect><rect rx="3" ry="3" x="75" y="626" width="467" height="20" class="task  task2"></rect><rect rx="3" ry="3" x="542" y="650" width="467" height="20" class="task  task2"></rect><rect rx="3" ry="3" x="1009" y="674" width="33" height="20" class="task  task2"></rect><rect rx="3" ry="3" x="1042" y="698" width="34" height="20" class="task  task2"></rect><rect rx="3" ry="3" x="75" y="722" width="33" height="20" class="task  done3"></rect><rect rx="3" ry="3" x="108" y="746" width="701" height="20" class="task  active3"></rect><rect rx="3" ry="3" x="809" y="770" width="33" height="20" class="task  task3"></rect><rect rx="3" ry="3" x="842" y="794" width="33" height="20" class="task  task3"></rect><rect rx="3" ry="3" x="75" y="818" width="467" height="20" class="task  task0"></rect><rect rx="3" ry="3" x="75" y="842" width="100" height="20" class="task  done0"></rect><rect rx="3" ry="3" x="542" y="866" width="467" height="20" class="task  task0"></rect><rect rx="3" ry="3" x="1009" y="890" width="33" height="20" class="task  task0"></rect><rect rx="3" ry="3" x="1042" y="914" width="34" height="20" class="task  task0"></rect><rect rx="3" ry="3" x="75" y="938" width="33" height="20" class="task  done1"></rect><rect rx="3" ry="3" x="108" y="962" width="701" height="20" class="task  active1"></rect><rect rx="3" ry="3" x="809" y="986" width="33" height="20" class="task  task1"></rect><rect rx="3" ry="3" x="842" y="1010" width="33" height="20" class="task  task1"></rect><rect rx="3" ry="3" x="75" y="1034" width="467" height="20" class="task  task2"></rect><rect rx="3" ry="3" x="542" y="1058" width="100" height="20" class="task  task2"></rect><rect rx="3" ry="3" x="642" y="1082" width="33" height="20" class="task  task2"></rect><rect rx="3" ry="3" x="675" y="1106" width="467" height="20" class="task  task2"></rect><rect rx="3" ry="3" x="1142" y="1130" width="34" height="20" class="task  task2"></rect><rect rx="3" ry="3" x="1176" y="1154" width="33" height="20" class="task  task2"></rect><rect rx="3" ry="3" x="75" y="1178" width="33" height="20" class="task  done3"></rect><rect rx="3" ry="3" x="108" y="1202" width="701" height="20" class="task  active3"></rect><rect rx="3" ry="3" x="809" y="1226" width="33" height="20" class="task  task3"></rect><rect rx="3" ry="3" x="842" y="1250" width="33" height="20" class="task  task3"></rect><rect rx="3" ry="3" x="75" y="1274" width="33" height="20" class="task  done0"></rect><rect rx="3" ry="3" x="108" y="1298" width="701" height="20" class="task  active0"></rect><rect rx="3" ry="3" x="809" y="1322" width="33" height="20" class="task  task0"></rect><rect rx="3" ry="3" x="842" y="1346" width="33" height="20" class="task  task0"></rect><rect rx="3" ry="3" x="75" y="1370" width="33" height="20" class="task  done1"></rect><rect rx="3" ry="3" x="108" y="1394" width="701" height="20" class="task  active1"></rect><rect rx="3" ry="3" x="809" y="1418" width="33" height="20" class="task  task1"></rect><rect rx="3" ry="3" x="842" y="1442" width="33" height="20" class="task  task1"></rect><rect rx="3" ry="3" x="75" y="1466" width="33" height="20" class="task  done2"></rect><rect rx="3" ry="3" x="108" y="1490" width="701" height="20" class="task  active2"></rect><rect rx="3" ry="3" x="809" y="1514" width="33" height="20" class="task  task2"></rect><rect rx="3" ry="3" x="842" y="1538" width="33" height="20" class="task  task2"></rect><rect rx="3" ry="3" x="75" y="1562" width="33" height="20" class="task  done3"></rect><rect rx="3" ry="3" x="108" y="1586" width="701" height="20" class="task  active3"></rect><rect rx="3" ry="3" x="809" y="1610" width="33" height="20" class="task  task3"></rect><rect rx="3" ry="3" x="842" y="1634" width="33" height="20" class="task  task3"></rect><rect rx="3" ry="3" x="75" y="1658" width="33" height="20" class="task  done0"></rect><rect rx="3" ry="3" x="108" y="1682" width="701" height="20" class="task  active0"></rect><rect rx="3" ry="3" x="809" y="1706" width="33" height="20" class="task  task0"></rect><rect rx="3" ry="3" x="842" y="1730" width="33" height="20" class="task  task0"></rect><rect rx="3" ry="3" x="75" y="1754" width="33" height="20" class="task  done1"></rect><rect rx="3" ry="3" x="108" y="1778" width="701" height="20" class="task  active1"></rect><rect rx="3" ry="3" x="809" y="1802" width="33" height="20" class="task  task1"></rect><rect rx="3" ry="3" x="842" y="1826" width="33" height="20" class="task  task1"></rect><rect rx="3" ry="3" x="75" y="1850" width="33" height="20" class="task  done2"></rect><rect rx="3" ry="3" x="108" y="1874" width="701" height="20" class="task  active2"></rect><rect rx="3" ry="3" x="809" y="1898" width="33" height="20" class="task  task2"></rect><rect rx="3" ry="3" x="842" y="1922" width="33" height="20" class="task  task2"></rect><rect rx="3" ry="3" x="75" y="1946" width="33" height="20" class="task  done3"></rect><rect rx="3" ry="3" x="108" y="1970" width="234" height="20" class="task  done3"></rect><rect rx="3" ry="3" x="342" y="1994" width="33" height="20" class="task  done3"></rect><rect rx="3" ry="3" x="375" y="2018" width="100" height="20" class="task  done3"></rect><rect rx="3" ry="3" x="75" y="2042" width="33" height="20" class="task  done0"></rect><rect rx="3" ry="3" x="108" y="2066" width="100" height="20" class="task  done0"></rect><rect rx="3" ry="3" x="75" y="2090" width="33" height="20" class="task  done1"></rect><rect rx="3" ry="3" x="108" y="2114" width="100" height="20" class="task  done1"></rect><rect rx="3" ry="3" x="75" y="2138" width="33" height="20" class="task  done2"></rect><rect rx="3" ry="3" x="108" y="2162" width="167" height="20" class="task  done2"></rect><rect rx="3" ry="3" x="242" y="2186" width="33" height="20" class="task  done2"></rect><rect rx="3" ry="3" x="242" y="2210" width="33" height="20" class="task  done2"></rect><rect rx="3" ry="3" x="75" y="2234" width="467" height="20" class="task  task3"></rect><rect rx="3" ry="3" x="75" y="2258" width="100" height="20" class="task  done3"></rect><rect rx="3" ry="3" x="542" y="2282" width="467" height="20" class="task  task3"></rect><rect rx="3" ry="3" x="1009" y="2306" width="33" height="20" class="task  task3"></rect><rect rx="3" ry="3" x="1042" y="2330" width="34" height="20" class="task  task3"></rect><rect rx="3" ry="3" x="75" y="2354" width="467" height="20" class="task  task0"></rect><rect rx="3" ry="3" x="542" y="2378" width="467" height="20" class="task  task0"></rect><rect rx="3" ry="3" x="1009" y="2402" width="33" height="20" class="task  task0"></rect><rect rx="3" ry="3" x="1042" y="2426" width="34" height="20" class="task  task0"></rect><rect rx="3" ry="3" x="75" y="2450" width="467" height="20" class="task  task1"></rect><rect rx="3" ry="3" x="542" y="2474" width="467" height="20" class="task  task1"></rect><rect rx="3" ry="3" x="1009" y="2498" width="33" height="20" class="task  task1"></rect><rect rx="3" ry="3" x="1042" y="2522" width="34" height="20" class="task  task1"></rect><text font-size="11" x="91.5" y="63.5" text-height="20" class="taskText taskText0  doneText0">Assign      </text><text font-size="11" x="458.5" y="87.5" text-height="20" class="taskText taskText0 activeText0">Review/Rewrite - AE &amp; RR   </text><text font-size="11" x="847" y="111.5" text-height="20" class="taskTextOutsideRight taskTextOutside0 ">RT Receives Content      </text><text font-size="11" x="880" y="135.5" text-height="20" class="taskTextOutsideRight taskTextOutside0 ">RT Edits, Uploads, Tests </text><text font-size="11" x="91.5" y="159.5" text-height="20" class="taskText taskText1  doneText1">Assign      </text><text font-size="11" x="458.5" y="183.5" text-height="20" class="taskText taskText1 activeText1">Review/Rewrite - RR    </text><text font-size="11" x="847" y="207.5" text-height="20" class="taskTextOutsideRight taskTextOutside1 ">RT Receives Content      </text><text font-size="11" x="880" y="231.5" text-height="20" class="taskTextOutsideRight taskTextOutside1 ">RT Edits, Uploads, Tests </text><text font-size="11" x="91.5" y="255.5" text-height="20" class="taskText taskText2  doneText2">Assign      </text><text font-size="11" x="458.5" y="279.5" text-height="20" class="taskText taskText2 activeText2">Review/Rewrite - JS, SB, New BOD    </text><text font-size="11" x="847" y="303.5" text-height="20" class="taskTextOutsideRight taskTextOutside2 ">RT Receives Content      </text><text font-size="11" x="880" y="327.5" text-height="20" class="taskTextOutsideRight taskTextOutside2 ">RT Edits, Uploads, Tests </text><text font-size="11" x="91.5" y="351.5" text-height="20" class="taskText taskText3  doneText3">Assign      </text><text font-size="11" x="458.5" y="375.5" text-height="20" class="taskText taskText3 activeText3">Review/Rewrite - SB, JS    </text><text font-size="11" x="847" y="399.5" text-height="20" class="taskTextOutsideRight taskTextOutside3 ">RT Receives Content      </text><text font-size="11" x="880" y="423.5" text-height="20" class="taskTextOutsideRight taskTextOutside3 ">RT Edits, Uploads, Tests </text><text font-size="11" x="91.5" y="447.5" text-height="20" class="taskText taskText0  doneText0">Assign      </text><text font-size="11" x="458.5" y="471.5" text-height="20" class="taskText taskText0 activeText0">Review/Rewrite - TR    </text><text font-size="11" x="847" y="495.5" text-height="20" class="taskTextOutsideRight taskTextOutside0 ">RT Receives Content      </text><text font-size="11" x="880" y="519.5" text-height="20" class="taskTextOutsideRight taskTextOutside0 ">RT Edits, Uploads, Tests </text><text font-size="11" x="91.5" y="543.5" text-height="20" class="taskText taskText1  doneText1">Assign      </text><text font-size="11" x="458.5" y="567.5" text-height="20" class="taskText taskText1 activeText1">Review/Rewrite - FD    </text><text font-size="11" x="847" y="591.5" text-height="20" class="taskTextOutsideRight taskTextOutside1 ">RT Receives Content      </text><text font-size="11" x="880" y="615.5" text-height="20" class="taskTextOutsideRight taskTextOutside1 ">RT Edits, Uploads, Tests </text><text font-size="11" x="308.5" y="639.5" text-height="20" class="taskText taskText2 ">Assign (See social action? Make Tikkun Olam a Dropdown label?!) </text><text font-size="11" x="775.5" y="663.5" text-height="20" class="taskText taskText2 ">Review/Rewrite     </text><text font-size="11" x="1047" y="687.5" text-height="20" class="taskTextOutsideRight taskTextOutside2 ">RT Receives Content      </text><text font-size="11" x="1081" y="711.5" text-height="20" class="taskTextOutsideRight taskTextOutside2 ">RT Edits, Uploads, Tests </text><text font-size="11" x="91.5" y="735.5" text-height="20" class="taskText taskText3  doneText3">Assign      </text><text font-size="11" x="458.5" y="759.5" text-height="20" class="taskText taskText3 activeText3">Review/Rewrite -EB    </text><text font-size="11" x="847" y="783.5" text-height="20" class="taskTextOutsideRight taskTextOutside3 ">RT Receives Content      </text><text font-size="11" x="880" y="807.5" text-height="20" class="taskTextOutsideRight taskTextOutside3 ">RT Edits, Uploads, Tests </text><text font-size="11" x="308.5" y="831.5" text-height="20" class="taskText taskText0 ">Assign (to be assigned) </text><text font-size="11" x="180" y="855.5" text-height="20" class="taskTextOutsideRight taskTextOutside0  doneText0">Remove Kitchen Section (commented out) - RT </text><text font-size="11" x="775.5" y="879.5" text-height="20" class="taskText taskText0 ">Review/Rewrite     </text><text font-size="11" x="1047" y="903.5" text-height="20" class="taskTextOutsideRight taskTextOutside0 ">RT Receives Content      </text><text font-size="11" x="1081" y="927.5" text-height="20" class="taskTextOutsideRight taskTextOutside0 ">RT Edits, Uploads, Tests </text><text font-size="11" x="91.5" y="951.5" text-height="20" class="taskText taskText1  doneText1">Assign       </text><text font-size="11" x="458.5" y="975.5" text-height="20" class="taskText taskText1 activeText1">Review/Rewrite - JS    </text><text font-size="11" x="847" y="999.5" text-height="20" class="taskTextOutsideRight taskTextOutside1 ">RT Receives Content      </text><text font-size="11" x="880" y="1023.5" text-height="20" class="taskTextOutsideRight taskTextOutside1 ">RT Edits, Uploads, Tests </text><text font-size="11" x="308.5" y="1047.5" text-height="20" class="taskText taskText2 ">Assign - New Page Under Tikkun Olam </text><text font-size="11" x="647" y="1071.5" text-height="20" class="taskTextOutsideRight taskTextOutside2 ">RT receives old content from RR     </text><text font-size="11" x="680" y="1095.5" text-height="20" class="taskTextOutsideRight taskTextOutside2 ">Edit and Upload Old Content </text><text font-size="11" x="908.5" y="1119.5" text-height="20" class="taskText taskText2 ">Review/Rewrite     </text><text font-size="11" x="1137" y="1143.5" text-height="20" class="taskTextOutsideLeft taskTextOutside2 ">RT Receives Content      </text><text font-size="11" x="1171" y="1167.5" text-height="20" class="taskTextOutsideLeft taskTextOutside2 ">RT Edits, Uploads, Tests </text><text font-size="11" x="91.5" y="1191.5" text-height="20" class="taskText taskText3  doneText3">Assign      </text><text font-size="11" x="458.5" y="1215.5" text-height="20" class="taskText taskText3 activeText3">Review/Rewrite - GR    </text><text font-size="11" x="847" y="1239.5" text-height="20" class="taskTextOutsideRight taskTextOutside3 ">RT Receives Content      </text><text font-size="11" x="880" y="1263.5" text-height="20" class="taskTextOutsideRight taskTextOutside3 ">RT Edits, Uploads, Tests </text><text font-size="11" x="91.5" y="1287.5" text-height="20" class="taskText taskText0  doneText0">Assign      </text><text font-size="11" x="458.5" y="1311.5" text-height="20" class="taskText taskText0 activeText0">Review/Rewrite - GR    </text><text font-size="11" x="847" y="1335.5" text-height="20" class="taskTextOutsideRight taskTextOutside0 ">RT Receives Content      </text><text font-size="11" x="880" y="1359.5" text-height="20" class="taskTextOutsideRight taskTextOutside0 ">RT Edits, Uploads, Tests </text><text font-size="11" x="91.5" y="1383.5" text-height="20" class="taskText taskText1  doneText1">Assign      </text><text font-size="11" x="458.5" y="1407.5" text-height="20" class="taskText taskText1 activeText1">Review/Rewrite - MB     </text><text font-size="11" x="847" y="1431.5" text-height="20" class="taskTextOutsideRight taskTextOutside1 ">RT Receives Content      </text><text font-size="11" x="880" y="1455.5" text-height="20" class="taskTextOutsideRight taskTextOutside1 ">RT Edits, Uploads, Tests </text><text font-size="11" x="91.5" y="1479.5" text-height="20" class="taskText taskText2  doneText2">Assign      </text><text font-size="11" x="458.5" y="1503.5" text-height="20" class="taskText taskText2 activeText2">Review/Rewrite - MB    </text><text font-size="11" x="847" y="1527.5" text-height="20" class="taskTextOutsideRight taskTextOutside2 ">RT Receives Content      </text><text font-size="11" x="880" y="1551.5" text-height="20" class="taskTextOutsideRight taskTextOutside2 ">RT Edits, Uploads, Tests </text><text font-size="11" x="91.5" y="1575.5" text-height="20" class="taskText taskText3  doneText3">Assign      </text><text font-size="11" x="458.5" y="1599.5" text-height="20" class="taskText taskText3 activeText3">Review/Rewrite - MB    </text><text font-size="11" x="847" y="1623.5" text-height="20" class="taskTextOutsideRight taskTextOutside3 ">RT Receives Content      </text><text font-size="11" x="880" y="1647.5" text-height="20" class="taskTextOutsideRight taskTextOutside3 ">RT Edits, Uploads, Tests </text><text font-size="11" x="91.5" y="1671.5" text-height="20" class="taskText taskText0  doneText0">Assign        </text><text font-size="11" x="458.5" y="1695.5" text-height="20" class="taskText taskText0 activeText0">Review/Rewrite - EMP    </text><text font-size="11" x="847" y="1719.5" text-height="20" class="taskTextOutsideRight taskTextOutside0 ">RT Receives Content      </text><text font-size="11" x="880" y="1743.5" text-height="20" class="taskTextOutsideRight taskTextOutside0 ">RT Edits, Uploads, Tests </text><text font-size="11" x="91.5" y="1767.5" text-height="20" class="taskText taskText1  doneText1">Assign       </text><text font-size="11" x="458.5" y="1791.5" text-height="20" class="taskText taskText1 activeText1">Review/Rewrite  - SS   </text><text font-size="11" x="847" y="1815.5" text-height="20" class="taskTextOutsideRight taskTextOutside1 ">RT Receives Content      </text><text font-size="11" x="880" y="1839.5" text-height="20" class="taskTextOutsideRight taskTextOutside1 ">RT Edits, Uploads, Tests </text><text font-size="11" x="91.5" y="1863.5" text-height="20" class="taskText taskText2  doneText2">Assign      </text><text font-size="11" x="458.5" y="1887.5" text-height="20" class="taskText taskText2 activeText2">Review/Rewrite  - GR    </text><text font-size="11" x="847" y="1911.5" text-height="20" class="taskTextOutsideRight taskTextOutside2 ">RT Receives Content      </text><text font-size="11" x="880" y="1935.5" text-height="20" class="taskTextOutsideRight taskTextOutside2 ">RT Edits, Uploads, Tests </text><text font-size="11" x="91.5" y="1959.5" text-height="20" class="taskText taskText3  doneText3">Assign      </text><text font-size="11" x="225" y="1983.5" text-height="20" class="taskText taskText3  doneText3">Review/Rewrite  - EB    </text><text font-size="11" x="380" y="2007.5" text-height="20" class="taskTextOutsideRight taskTextOutside3  doneText3">RT Receives Content (Friday, 5p)     </text><text font-size="11" x="480" y="2031.5" text-height="20" class="taskTextOutsideRight taskTextOutside3  doneText3">RT Edits, Uploads, Tests </text><text font-size="11" x="91.5" y="2055.5" text-height="20" class="taskText taskText0  doneText0">Assign      </text><text font-size="11" x="213" y="2079.5" text-height="20" class="taskTextOutsideRight taskTextOutside0  doneText0">Remove - RT (removed from menu and unpublished)   </text><text font-size="11" x="91.5" y="2103.5" text-height="20" class="taskText taskText1  doneText1">Assign      </text><text font-size="11" x="213" y="2127.5" text-height="20" class="taskTextOutsideRight taskTextOutside1  doneText1">Remove - RT (removed from menu and unpublished) </text><text font-size="11" x="91.5" y="2151.5" text-height="20" class="taskText taskText2  doneText2">Assign      </text><text font-size="11" x="191.5" y="2175.5" text-height="20" class="taskText taskText2  doneText2">Review/Rewrite - RB    </text><text font-size="11" x="280" y="2199.5" text-height="20" class="taskTextOutsideRight taskTextOutside2  doneText2">RT Receives Content      </text><text font-size="11" x="280" y="2223.5" text-height="20" class="taskTextOutsideRight taskTextOutside2  doneText2">RT Edits, Uploads, Tests </text><text font-size="11" x="308.5" y="2247.5" text-height="20" class="taskText taskText3 ">Assign      </text><text font-size="11" x="180" y="2271.5" text-height="20" class="taskTextOutsideRight taskTextOutside3  doneText3">Remove Chavurah - RT (commented out)    </text><text font-size="11" x="775.5" y="2295.5" text-height="20" class="taskText taskText3 ">Review/Rewrite     </text><text font-size="11" x="1047" y="2319.5" text-height="20" class="taskTextOutsideRight taskTextOutside3 ">RT Receives Content      </text><text font-size="11" x="1081" y="2343.5" text-height="20" class="taskTextOutsideRight taskTextOutside3 ">RT Edits, Uploads, Tests </text><text font-size="11" x="308.5" y="2367.5" text-height="20" class="taskText taskText0 ">Assign      </text><text font-size="11" x="775.5" y="2391.5" text-height="20" class="taskText taskText0 ">Write       </text><text font-size="11" x="1047" y="2415.5" text-height="20" class="taskTextOutsideRight taskTextOutside0 ">RT Receives Content </text><text font-size="11" x="1081" y="2439.5" text-height="20" class="taskTextOutsideRight taskTextOutside0 ">RT Edits, Uploads, Tests    </text><text font-size="11" x="308.5" y="2463.5" text-height="20" class="taskText taskText1 ">Assign      </text><text font-size="11" x="775.5" y="2487.5" text-height="20" class="taskText taskText1 ">Write       </text><text font-size="11" x="1047" y="2511.5" text-height="20" class="taskTextOutsideRight taskTextOutside1 ">RT Receives Content </text><text font-size="11" x="1081" y="2535.5" text-height="20" class="taskTextOutsideRight taskTextOutside1 ">RT Edits, Uploads, Tests    </text></g><g><text x="10" y="98" class="sectionTitle sectionTitle0">Mission Statement</text><text x="10" y="194" class="sectionTitle sectionTitle1">Contact Us</text><text x="10" y="290" class="sectionTitle sectionTitle2">Who's Who</text><text x="10" y="386" class="sectionTitle sectionTitle3">Committees</text><text x="10" y="482" class="sectionTitle sectionTitle0">Stay Connected</text><text x="10" y="578" class="sectionTitle sectionTitle1">Judaica</text><text x="10" y="674" class="sectionTitle sectionTitle2">Tikkun Olam</text><text x="10" y="770" class="sectionTitle sectionTitle3">Contributions</text><text x="10" y="878" class="sectionTitle sectionTitle0">Mitzvot</text><text x="10" y="986" class="sectionTitle sectionTitle1">Donate</text><text x="10" y="1106" class="sectionTitle sectionTitle2">Social Action </text><text x="10" y="1226" class="sectionTitle sectionTitle3">Service Etiquette</text><text x="10" y="1322" class="sectionTitle sectionTitle0">Services</text><text x="10" y="1418" class="sectionTitle sectionTitle1">Religious School</text><text x="10" y="1514" class="sectionTitle sectionTitle2">Nursery School</text><text x="10" y="1610" class="sectionTitle sectionTitle3">Confirmation Class</text><text x="10" y="1706" class="sectionTitle sectionTitle0">Adult Education</text><text x="10" y="1802" class="sectionTitle sectionTitle1">Library</text><text x="10" y="1898" class="sectionTitle sectionTitle2">Ritual</text><text x="10" y="1994" class="sectionTitle sectionTitle3">Sisterhood</text><text x="10" y="2066" class="sectionTitle sectionTitle0">Kadima</text><text x="10" y="2114" class="sectionTitle sectionTitle1">USY </text><text x="10" y="2186" class="sectionTitle sectionTitle2">Men's Club</text><text x="10" y="2294" class="sectionTitle sectionTitle3">Other Clubs</text><text x="10" y="2402" class="sectionTitle sectionTitle0">New Page - Facility Rentals</text><text x="10" y="2498" class="sectionTitle sectionTitle1">New Page - Mitzvah Gallery</text></g><g class="today"><line x1="495" x2="495" y1="25" y2="2571" class="today"></line></g><text x="642" y="25" class="titleText">Temple Sinai Web Site Review/Rewrite - 2020-06-09T14</text></svg>