<svg id="mermaid-1590700539120" width="100%" xmlns="http://www.w3.org/2000/svg" height="100%" viewBox="0 0 784 2404"><style>#mermaid-1590700539120 .label{font-family:trebuchet ms,verdana,arial;color:#333}#mermaid-1590700539120 .node circle,#mermaid-1590700539120 .node ellipse,#mermaid-1590700539120 .node polygon,#mermaid-1590700539120 .node rect{fill:#eee;stroke:#999;stroke-width:1px}#mermaid-1590700539120 .node.clickable{cursor:pointer}#mermaid-1590700539120 .arrowheadPath{fill:#333}#mermaid-1590700539120 .edgePath .path{stroke:#666;stroke-width:1.5px}#mermaid-1590700539120 .edgeLabel{background-color:#fff}#mermaid-1590700539120 .cluster rect{fill:#eaf2fb!important;stroke:#26a!important;stroke-width:1px!important}#mermaid-1590700539120 .cluster text{fill:#333}#mermaid-1590700539120 div.mermaidTooltip{position:absolute;text-align:center;max-width:200px;padding:2px;font-family:trebuchet ms,verdana,arial;font-size:12px;background:#eaf2fb;border:1px solid #26a;border-radius:2px;pointer-events:none;z-index:100}#mermaid-1590700539120 .actor{stroke:#999;fill:#eee}#mermaid-1590700539120 text.actor{fill:#333;stroke:none}#mermaid-1590700539120 .actor-line{stroke:#666}#mermaid-1590700539120 .messageLine0{marker-end:"url(#arrowhead)"}#mermaid-1590700539120 .messageLine0,#mermaid-1590700539120 .messageLine1{stroke-width:1.5;stroke-dasharray:"2 2";stroke:#333}#mermaid-1590700539120 #arrowhead{fill:#333}#mermaid-1590700539120 #crosshead path{fill:#333!important;stroke:#333!important}#mermaid-1590700539120 .messageText{fill:#333;stroke:none}#mermaid-1590700539120 .labelBox{stroke:#999;fill:#eee}#mermaid-1590700539120 .labelText,#mermaid-1590700539120 .loopText{fill:#fff;stroke:none}#mermaid-1590700539120 .loopLine{stroke-width:2;stroke-dasharray:"2 2";marker-end:"url(#arrowhead)";stroke:#999}#mermaid-1590700539120 .note{stroke:#770;fill:#ffa}#mermaid-1590700539120 .noteText{fill:#000;stroke:none;font-family:trebuchet ms,verdana,arial;font-size:14px}#mermaid-1590700539120 .section{stroke:none;opacity:.2}#mermaid-1590700539120 .section0,#mermaid-1590700539120 .section2{fill:#80b3e6}#mermaid-1590700539120 .section1,#mermaid-1590700539120 .section3{fill:#fff;opacity:.2}#mermaid-1590700539120 .sectionTitle0,#mermaid-1590700539120 .sectionTitle1,#mermaid-1590700539120 .sectionTitle2,#mermaid-1590700539120 .sectionTitle3{fill:#333}#mermaid-1590700539120 .sectionTitle{text-anchor:start;font-size:11px;text-height:14px}#mermaid-1590700539120 .grid .tick{stroke:#e6e6e6;opacity:.3;shape-rendering:crispEdges}#mermaid-1590700539120 .grid path{stroke-width:0}#mermaid-1590700539120 .today{fill:none;stroke:#d42;stroke-width:2px}#mermaid-1590700539120 .task{stroke-width:2}#mermaid-1590700539120 .taskText{text-anchor:middle;font-size:11px}#mermaid-1590700539120 .taskTextOutsideRight{fill:#333;text-anchor:start;font-size:11px}#mermaid-1590700539120 .taskTextOutsideLeft{fill:#333;text-anchor:end;font-size:11px}#mermaid-1590700539120 .taskText0,#mermaid-1590700539120 .taskText1,#mermaid-1590700539120 .taskText2,#mermaid-1590700539120 .taskText3{fill:#fff}#mermaid-1590700539120 .task0,#mermaid-1590700539120 .task1,#mermaid-1590700539120 .task2,#mermaid-1590700539120 .task3{fill:#26a;stroke:#1a4d80}#mermaid-1590700539120 .taskTextOutside0,#mermaid-1590700539120 .taskTextOutside1,#mermaid-1590700539120 .taskTextOutside2,#mermaid-1590700539120 .taskTextOutside3{fill:#333}#mermaid-1590700539120 .active0,#mermaid-1590700539120 .active1,#mermaid-1590700539120 .active2,#mermaid-1590700539120 .active3{fill:#eee;stroke:#1a4d80}#mermaid-1590700539120 .activeText0,#mermaid-1590700539120 .activeText1,#mermaid-1590700539120 .activeText2,#mermaid-1590700539120 .activeText3{fill:#333!important}#mermaid-1590700539120 .done0,#mermaid-1590700539120 .done1,#mermaid-1590700539120 .done2,#mermaid-1590700539120 .done3{stroke:#666;fill:#bbb;stroke-width:2}#mermaid-1590700539120 .doneText0,#mermaid-1590700539120 .doneText1,#mermaid-1590700539120 .doneText2,#mermaid-1590700539120 .doneText3{fill:#333!important}#mermaid-1590700539120 .crit0,#mermaid-1590700539120 .crit1,#mermaid-1590700539120 .crit2,#mermaid-1590700539120 .crit3{stroke:#b1361b;fill:#d42;stroke-width:2}#mermaid-1590700539120 .activeCrit0,#mermaid-1590700539120 .activeCrit1,#mermaid-1590700539120 .activeCrit2,#mermaid-1590700539120 .activeCrit3{stroke:#b1361b;fill:#eee;stroke-width:2}#mermaid-1590700539120 .doneCrit0,#mermaid-1590700539120 .doneCrit1,#mermaid-1590700539120 .doneCrit2,#mermaid-1590700539120 .doneCrit3{stroke:#b1361b;fill:#bbb;stroke-width:2;cursor:pointer;shape-rendering:crispEdges}#mermaid-1590700539120 .activeCritText0,#mermaid-1590700539120 .activeCritText1,#mermaid-1590700539120 .activeCritText2,#mermaid-1590700539120 .activeCritText3,#mermaid-1590700539120 .doneCritText0,#mermaid-1590700539120 .doneCritText1,#mermaid-1590700539120 .doneCritText2,#mermaid-1590700539120 .doneCritText3{fill:#333!important}#mermaid-1590700539120 .titleText{text-anchor:middle;font-size:18px;fill:#333}#mermaid-1590700539120 g.classGroup text{fill:#999;stroke:none;font-family:trebuchet ms,verdana,arial;font-size:10px}#mermaid-1590700539120 g.classGroup rect{fill:#eee;stroke:#999}#mermaid-1590700539120 g.classGroup line{stroke:#999;stroke-width:1}#mermaid-1590700539120 .classLabel .box{stroke:none;stroke-width:0;fill:#eee;opacity:.5}#mermaid-1590700539120 .classLabel .label{fill:#999;font-size:10px}#mermaid-1590700539120 .relation{stroke:#999;stroke-width:1;fill:none}#mermaid-1590700539120 #compositionEnd,#mermaid-1590700539120 #compositionStart{fill:#999;stroke:#999;stroke-width:1}#mermaid-1590700539120 #aggregationEnd,#mermaid-1590700539120 #aggregationStart{fill:#eee;stroke:#999;stroke-width:1}#mermaid-1590700539120 #dependencyEnd,#mermaid-1590700539120 #dependencyStart,#mermaid-1590700539120 #extensionEnd,#mermaid-1590700539120 #extensionStart{fill:#999;stroke:#999;stroke-width:1}#mermaid-1590700539120 .branch-label,#mermaid-1590700539120 .commit-id,#mermaid-1590700539120 .commit-msg{fill:#d3d3d3;color:#d3d3d3}</style><style>#mermaid-1590700539120 {
    color: rgb(0, 0, 0);
    font: normal normal 400 normal 16px / normal "Times New Roman";
  }</style><g></g><g class="grid" transform="translate(75, 2354)" fill="none" font-size="10" font-family="sans-serif" text-anchor="middle"><path class="domain" stroke="#000" d="M0.5,-2319V0.5H634.5V-2319"></path><g class="tick" opacity="1" transform="translate(31.5,0)"><line stroke="#000" y2="-2319"></line><text fill="#000" y="3" dy="1em" stroke="none" font-size="10" style="text-anchor: middle;">05-29</text></g><g class="tick" opacity="1" transform="translate(92.5,0)"><line stroke="#000" y2="-2319"></line><text fill="#000" y="3" dy="1em" stroke="none" font-size="10" style="text-anchor: middle;">05-31</text></g><g class="tick" opacity="1" transform="translate(122.5,0)"><line stroke="#000" y2="-2319"></line><text fill="#000" y="3" dy="1em" stroke="none" font-size="10" style="text-anchor: middle;">06-01</text></g><g class="tick" opacity="1" transform="translate(184.5,0)"><line stroke="#000" y2="-2319"></line><text fill="#000" y="3" dy="1em" stroke="none" font-size="10" style="text-anchor: middle;">06-03</text></g><g class="tick" opacity="1" transform="translate(245.5,0)"><line stroke="#000" y2="-2319"></line><text fill="#000" y="3" dy="1em" stroke="none" font-size="10" style="text-anchor: middle;">06-05</text></g><g class="tick" opacity="1" transform="translate(306.5,0)"><line stroke="#000" y2="-2319"></line><text fill="#000" y="3" dy="1em" stroke="none" font-size="10" style="text-anchor: middle;">06-07</text></g><g class="tick" opacity="1" transform="translate(367.5,0)"><line stroke="#000" y2="-2319"></line><text fill="#000" y="3" dy="1em" stroke="none" font-size="10" style="text-anchor: middle;">06-09</text></g><g class="tick" opacity="1" transform="translate(428.5,0)"><line stroke="#000" y2="-2319"></line><text fill="#000" y="3" dy="1em" stroke="none" font-size="10" style="text-anchor: middle;">06-11</text></g><g class="tick" opacity="1" transform="translate(490.5,0)"><line stroke="#000" y2="-2319"></line><text fill="#000" y="3" dy="1em" stroke="none" font-size="10" style="text-anchor: middle;">06-13</text></g><g class="tick" opacity="1" transform="translate(551.5,0)"><line stroke="#000" y2="-2319"></line><text fill="#000" y="3" dy="1em" stroke="none" font-size="10" style="text-anchor: middle;">06-15</text></g><g class="tick" opacity="1" transform="translate(612.5,0)"><line stroke="#000" y2="-2319"></line><text fill="#000" y="3" dy="1em" stroke="none" font-size="10" style="text-anchor: middle;">06-17</text></g></g><g><rect x="0" y="48" width="746.5" height="24" class="section section0"></rect><rect x="0" y="72" width="746.5" height="24" class="section section0"></rect><rect x="0" y="96" width="746.5" height="24" class="section section0"></rect><rect x="0" y="120" width="746.5" height="24" class="section section0"></rect><rect x="0" y="144" width="746.5" height="24" class="section section1"></rect><rect x="0" y="168" width="746.5" height="24" class="section section1"></rect><rect x="0" y="192" width="746.5" height="24" class="section section1"></rect><rect x="0" y="216" width="746.5" height="24" class="section section1"></rect><rect x="0" y="240" width="746.5" height="24" class="section section2"></rect><rect x="0" y="264" width="746.5" height="24" class="section section2"></rect><rect x="0" y="288" width="746.5" height="24" class="section section2"></rect><rect x="0" y="312" width="746.5" height="24" class="section section2"></rect><rect x="0" y="336" width="746.5" height="24" class="section section3"></rect><rect x="0" y="360" width="746.5" height="24" class="section section3"></rect><rect x="0" y="384" width="746.5" height="24" class="section section3"></rect><rect x="0" y="408" width="746.5" height="24" class="section section3"></rect><rect x="0" y="432" width="746.5" height="24" class="section section0"></rect><rect x="0" y="456" width="746.5" height="24" class="section section0"></rect><rect x="0" y="480" width="746.5" height="24" class="section section0"></rect><rect x="0" y="504" width="746.5" height="24" class="section section0"></rect><rect x="0" y="528" width="746.5" height="24" class="section section1"></rect><rect x="0" y="552" width="746.5" height="24" class="section section1"></rect><rect x="0" y="576" width="746.5" height="24" class="section section1"></rect><rect x="0" y="600" width="746.5" height="24" class="section section1"></rect><rect x="0" y="624" width="746.5" height="24" class="section section2"></rect><rect x="0" y="648" width="746.5" height="24" class="section section2"></rect><rect x="0" y="672" width="746.5" height="24" class="section section2"></rect><rect x="0" y="696" width="746.5" height="24" class="section section2"></rect><rect x="0" y="720" width="746.5" height="24" class="section section3"></rect><rect x="0" y="744" width="746.5" height="24" class="section section3"></rect><rect x="0" y="768" width="746.5" height="24" class="section section3"></rect><rect x="0" y="792" width="746.5" height="24" class="section section3"></rect><rect x="0" y="816" width="746.5" height="24" class="section section0"></rect><rect x="0" y="840" width="746.5" height="24" class="section section0"></rect><rect x="0" y="864" width="746.5" height="24" class="section section0"></rect><rect x="0" y="888" width="746.5" height="24" class="section section0"></rect><rect x="0" y="912" width="746.5" height="24" class="section section0"></rect><rect x="0" y="936" width="746.5" height="24" class="section section1"></rect><rect x="0" y="960" width="746.5" height="24" class="section section1"></rect><rect x="0" y="984" width="746.5" height="24" class="section section1"></rect><rect x="0" y="1008" width="746.5" height="24" class="section section1"></rect><rect x="0" y="1032" width="746.5" height="24" class="section section2"></rect><rect x="0" y="1056" width="746.5" height="24" class="section section2"></rect><rect x="0" y="1080" width="746.5" height="24" class="section section2"></rect><rect x="0" y="1104" width="746.5" height="24" class="section section2"></rect><rect x="0" y="1128" width="746.5" height="24" class="section section2"></rect><rect x="0" y="1152" width="746.5" height="24" class="section section2"></rect><rect x="0" y="1176" width="746.5" height="24" class="section section3"></rect><rect x="0" y="1200" width="746.5" height="24" class="section section3"></rect><rect x="0" y="1224" width="746.5" height="24" class="section section3"></rect><rect x="0" y="1248" width="746.5" height="24" class="section section3"></rect><rect x="0" y="1272" width="746.5" height="24" class="section section0"></rect><rect x="0" y="1296" width="746.5" height="24" class="section section0"></rect><rect x="0" y="1320" width="746.5" height="24" class="section section0"></rect><rect x="0" y="1344" width="746.5" height="24" class="section section0"></rect><rect x="0" y="1368" width="746.5" height="24" class="section section1"></rect><rect x="0" y="1392" width="746.5" height="24" class="section section1"></rect><rect x="0" y="1416" width="746.5" height="24" class="section section1"></rect><rect x="0" y="1440" width="746.5" height="24" class="section section1"></rect><rect x="0" y="1464" width="746.5" height="24" class="section section2"></rect><rect x="0" y="1488" width="746.5" height="24" class="section section2"></rect><rect x="0" y="1512" width="746.5" height="24" class="section section2"></rect><rect x="0" y="1536" width="746.5" height="24" class="section section2"></rect><rect x="0" y="1560" width="746.5" height="24" class="section section3"></rect><rect x="0" y="1584" width="746.5" height="24" class="section section3"></rect><rect x="0" y="1608" width="746.5" height="24" class="section section3"></rect><rect x="0" y="1632" width="746.5" height="24" class="section section3"></rect><rect x="0" y="1656" width="746.5" height="24" class="section section0"></rect><rect x="0" y="1680" width="746.5" height="24" class="section section0"></rect><rect x="0" y="1704" width="746.5" height="24" class="section section0"></rect><rect x="0" y="1728" width="746.5" height="24" class="section section0"></rect><rect x="0" y="1752" width="746.5" height="24" class="section section1"></rect><rect x="0" y="1776" width="746.5" height="24" class="section section1"></rect><rect x="0" y="1800" width="746.5" height="24" class="section section1"></rect><rect x="0" y="1824" width="746.5" height="24" class="section section1"></rect><rect x="0" y="1848" width="746.5" height="24" class="section section2"></rect><rect x="0" y="1872" width="746.5" height="24" class="section section2"></rect><rect x="0" y="1896" width="746.5" height="24" class="section section2"></rect><rect x="0" y="1920" width="746.5" height="24" class="section section2"></rect><rect x="0" y="1944" width="746.5" height="24" class="section section3"></rect><rect x="0" y="1968" width="746.5" height="24" class="section section3"></rect><rect x="0" y="1992" width="746.5" height="24" class="section section3"></rect><rect x="0" y="2016" width="746.5" height="24" class="section section3"></rect><rect x="0" y="2040" width="746.5" height="24" class="section section0"></rect><rect x="0" y="2064" width="746.5" height="24" class="section section0"></rect><rect x="0" y="2088" width="746.5" height="24" class="section section1"></rect><rect x="0" y="2112" width="746.5" height="24" class="section section1"></rect><rect x="0" y="2136" width="746.5" height="24" class="section section2"></rect><rect x="0" y="2160" width="746.5" height="24" class="section section2"></rect><rect x="0" y="2184" width="746.5" height="24" class="section section2"></rect><rect x="0" y="2208" width="746.5" height="24" class="section section2"></rect><rect x="0" y="2232" width="746.5" height="24" class="section section3"></rect><rect x="0" y="2256" width="746.5" height="24" class="section section3"></rect><rect x="0" y="2280" width="746.5" height="24" class="section section3"></rect><rect x="0" y="2304" width="746.5" height="24" class="section section3"></rect><rect x="0" y="2328" width="746.5" height="24" class="section section3"></rect></g><g><rect rx="3" ry="3" x="75" y="50" width="31" height="20" class="task  done0"></rect><rect rx="3" ry="3" x="106" y="74" width="428" height="20" class="task  active0"></rect><rect rx="3" ry="3" x="534" y="98" width="31" height="20" class="task  task0"></rect><rect rx="3" ry="3" x="565" y="122" width="30" height="20" class="task  task0"></rect><rect rx="3" ry="3" x="75" y="146" width="31" height="20" class="task  done1"></rect><rect rx="3" ry="3" x="106" y="170" width="428" height="20" class="task  active1"></rect><rect rx="3" ry="3" x="534" y="194" width="31" height="20" class="task  task1"></rect><rect rx="3" ry="3" x="565" y="218" width="30" height="20" class="task  task1"></rect><rect rx="3" ry="3" x="75" y="242" width="31" height="20" class="task  done2"></rect><rect rx="3" ry="3" x="106" y="266" width="428" height="20" class="task  active2"></rect><rect rx="3" ry="3" x="534" y="290" width="31" height="20" class="task  task2"></rect><rect rx="3" ry="3" x="565" y="314" width="30" height="20" class="task  task2"></rect><rect rx="3" ry="3" x="75" y="338" width="31" height="20" class="task  done3"></rect><rect rx="3" ry="3" x="106" y="362" width="428" height="20" class="task  active3"></rect><rect rx="3" ry="3" x="534" y="386" width="31" height="20" class="task  task3"></rect><rect rx="3" ry="3" x="565" y="410" width="30" height="20" class="task  task3"></rect><rect rx="3" ry="3" x="75" y="434" width="31" height="20" class="task  done0"></rect><rect rx="3" ry="3" x="106" y="458" width="428" height="20" class="task  active0"></rect><rect rx="3" ry="3" x="534" y="482" width="31" height="20" class="task  task0"></rect><rect rx="3" ry="3" x="565" y="506" width="30" height="20" class="task  task0"></rect><rect rx="3" ry="3" x="75" y="530" width="31" height="20" class="task  done1"></rect><rect rx="3" ry="3" x="106" y="554" width="428" height="20" class="task  active1"></rect><rect rx="3" ry="3" x="534" y="578" width="31" height="20" class="task  task1"></rect><rect rx="3" ry="3" x="565" y="602" width="30" height="20" class="task  task1"></rect><rect rx="3" ry="3" x="75" y="626" width="31" height="20" class="task  active2"></rect><rect rx="3" ry="3" x="106" y="650" width="428" height="20" class="task  task2"></rect><rect rx="3" ry="3" x="534" y="674" width="31" height="20" class="task  task2"></rect><rect rx="3" ry="3" x="565" y="698" width="30" height="20" class="task  task2"></rect><rect rx="3" ry="3" x="75" y="722" width="31" height="20" class="task  done3"></rect><rect rx="3" ry="3" x="106" y="746" width="428" height="20" class="task  active3"></rect><rect rx="3" ry="3" x="534" y="770" width="31" height="20" class="task  task3"></rect><rect rx="3" ry="3" x="565" y="794" width="30" height="20" class="task  task3"></rect><rect rx="3" ry="3" x="75" y="818" width="92" height="20" class="task  active0"></rect><rect rx="3" ry="3" x="75" y="842" width="31" height="20" class="task  active0"></rect><rect rx="3" ry="3" x="167" y="866" width="428" height="20" class="task  task0"></rect><rect rx="3" ry="3" x="595" y="890" width="31" height="20" class="task  task0"></rect><rect rx="3" ry="3" x="626" y="914" width="30" height="20" class="task  task0"></rect><rect rx="3" ry="3" x="75" y="938" width="31" height="20" class="task  done1"></rect><rect rx="3" ry="3" x="106" y="962" width="428" height="20" class="task  active1"></rect><rect rx="3" ry="3" x="534" y="986" width="31" height="20" class="task  task1"></rect><rect rx="3" ry="3" x="565" y="1010" width="30" height="20" class="task  task1"></rect><rect rx="3" ry="3" x="75" y="1034" width="31" height="20" class="task  active2"></rect><rect rx="3" ry="3" x="97" y="1058" width="92" height="20" class="task  task2"></rect><rect rx="3" ry="3" x="189" y="1082" width="30" height="20" class="task  task2"></rect><rect rx="3" ry="3" x="219" y="1106" width="429" height="20" class="task  task2"></rect><rect rx="3" ry="3" x="648" y="1130" width="30" height="20" class="task  task2"></rect><rect rx="3" ry="3" x="678" y="1154" width="31" height="20" class="task  task2"></rect><rect rx="3" ry="3" x="75" y="1178" width="31" height="20" class="task  done3"></rect><rect rx="3" ry="3" x="106" y="1202" width="428" height="20" class="task  active3"></rect><rect rx="3" ry="3" x="534" y="1226" width="31" height="20" class="task  task3"></rect><rect rx="3" ry="3" x="565" y="1250" width="30" height="20" class="task  task3"></rect><rect rx="3" ry="3" x="75" y="1274" width="31" height="20" class="task  done0"></rect><rect rx="3" ry="3" x="106" y="1298" width="428" height="20" class="task  active0"></rect><rect rx="3" ry="3" x="534" y="1322" width="31" height="20" class="task  task0"></rect><rect rx="3" ry="3" x="565" y="1346" width="30" height="20" class="task  task0"></rect><rect rx="3" ry="3" x="75" y="1370" width="31" height="20" class="task  done1"></rect><rect rx="3" ry="3" x="106" y="1394" width="428" height="20" class="task  active1"></rect><rect rx="3" ry="3" x="534" y="1418" width="31" height="20" class="task  task1"></rect><rect rx="3" ry="3" x="565" y="1442" width="30" height="20" class="task  task1"></rect><rect rx="3" ry="3" x="75" y="1466" width="31" height="20" class="task  done2"></rect><rect rx="3" ry="3" x="106" y="1490" width="428" height="20" class="task  active2"></rect><rect rx="3" ry="3" x="534" y="1514" width="31" height="20" class="task  task2"></rect><rect rx="3" ry="3" x="565" y="1538" width="30" height="20" class="task  task2"></rect><rect rx="3" ry="3" x="75" y="1562" width="31" height="20" class="task  done3"></rect><rect rx="3" ry="3" x="106" y="1586" width="428" height="20" class="task  active3"></rect><rect rx="3" ry="3" x="534" y="1610" width="31" height="20" class="task  task3"></rect><rect rx="3" ry="3" x="565" y="1634" width="30" height="20" class="task  task3"></rect><rect rx="3" ry="3" x="75" y="1658" width="31" height="20" class="task  done0"></rect><rect rx="3" ry="3" x="106" y="1682" width="428" height="20" class="task  active0"></rect><rect rx="3" ry="3" x="534" y="1706" width="31" height="20" class="task  task0"></rect><rect rx="3" ry="3" x="565" y="1730" width="30" height="20" class="task  task0"></rect><rect rx="3" ry="3" x="75" y="1754" width="31" height="20" class="task  done1"></rect><rect rx="3" ry="3" x="106" y="1778" width="428" height="20" class="task  active1"></rect><rect rx="3" ry="3" x="534" y="1802" width="31" height="20" class="task  task1"></rect><rect rx="3" ry="3" x="565" y="1826" width="30" height="20" class="task  task1"></rect><rect rx="3" ry="3" x="75" y="1850" width="31" height="20" class="task  done2"></rect><rect rx="3" ry="3" x="106" y="1874" width="428" height="20" class="task  active2"></rect><rect rx="3" ry="3" x="534" y="1898" width="31" height="20" class="task  task2"></rect><rect rx="3" ry="3" x="565" y="1922" width="30" height="20" class="task  task2"></rect><rect rx="3" ry="3" x="75" y="1946" width="31" height="20" class="task  done3"></rect><rect rx="3" ry="3" x="106" y="1970" width="428" height="20" class="task  active3"></rect><rect rx="3" ry="3" x="534" y="1994" width="31" height="20" class="task  task3"></rect><rect rx="3" ry="3" x="565" y="2018" width="30" height="20" class="task  task3"></rect><rect rx="3" ry="3" x="75" y="2042" width="31" height="20" class="task  done0"></rect><rect rx="3" ry="3" x="106" y="2066" width="30" height="20" class="task  active0"></rect><rect rx="3" ry="3" x="75" y="2090" width="31" height="20" class="task  done1"></rect><rect rx="3" ry="3" x="106" y="2114" width="30" height="20" class="task  active1"></rect><rect rx="3" ry="3" x="75" y="2138" width="31" height="20" class="task  done2"></rect><rect rx="3" ry="3" x="106" y="2162" width="428" height="20" class="task  active2"></rect><rect rx="3" ry="3" x="534" y="2186" width="31" height="20" class="task  task2"></rect><rect rx="3" ry="3" x="565" y="2210" width="30" height="20" class="task  task2"></rect><rect rx="3" ry="3" x="75" y="2234" width="31" height="20" class="task  active3"></rect><rect rx="3" ry="3" x="75" y="2258" width="31" height="20" class="task  active3"></rect><rect rx="3" ry="3" x="106" y="2282" width="428" height="20" class="task  task3"></rect><rect rx="3" ry="3" x="534" y="2306" width="31" height="20" class="task  task3"></rect><rect rx="3" ry="3" x="565" y="2330" width="30" height="20" class="task  task3"></rect><text font-size="11" x="111" y="63.5" text-height="20" class="taskTextOutsideRight taskTextOutside0  doneText0">Assign - AE &amp; RR      </text><text font-size="11" x="320" y="87.5" text-height="20" class="taskText taskText0 activeText0">Rewrite     </text><text font-size="11" x="570" y="111.5" text-height="20" class="taskTextOutsideRight taskTextOutside0 ">RT receives content      </text><text font-size="11" x="600" y="135.5" text-height="20" class="taskTextOutsideRight taskTextOutside0 ">Edit, Upload, Test </text><text font-size="11" x="111" y="159.5" text-height="20" class="taskTextOutsideRight taskTextOutside1  doneText1">Assign - RR </text><text font-size="11" x="320" y="183.5" text-height="20" class="taskText taskText1 activeText1">Rewrite     </text><text font-size="11" x="570" y="207.5" text-height="20" class="taskTextOutsideRight taskTextOutside1 ">RT receives content      </text><text font-size="11" x="600" y="231.5" text-height="20" class="taskTextOutsideRight taskTextOutside1 ">Edit, Upload, Test </text><text font-size="11" x="111" y="255.5" text-height="20" class="taskTextOutsideRight taskTextOutside2  doneText2">Assign - JS, SB, New BOD    </text><text font-size="11" x="320" y="279.5" text-height="20" class="taskText taskText2 activeText2">Rewrite     </text><text font-size="11" x="570" y="303.5" text-height="20" class="taskTextOutsideRight taskTextOutside2 ">RT receives content      </text><text font-size="11" x="600" y="327.5" text-height="20" class="taskTextOutsideRight taskTextOutside2 ">Edit, Upload, Test </text><text font-size="11" x="111" y="351.5" text-height="20" class="taskTextOutsideRight taskTextOutside3  doneText3">Assign -SB &amp; JS     </text><text font-size="11" x="320" y="375.5" text-height="20" class="taskText taskText3 activeText3">Rewrite     </text><text font-size="11" x="570" y="399.5" text-height="20" class="taskTextOutsideRight taskTextOutside3 ">RT receives content      </text><text font-size="11" x="600" y="423.5" text-height="20" class="taskTextOutsideRight taskTextOutside3 ">Edit, Upload, Test </text><text font-size="11" x="111" y="447.5" text-height="20" class="taskTextOutsideRight taskTextOutside0  doneText0">Assign - TR </text><text font-size="11" x="320" y="471.5" text-height="20" class="taskText taskText0 activeText0">Rewrite     </text><text font-size="11" x="570" y="495.5" text-height="20" class="taskTextOutsideRight taskTextOutside0 ">RT receives content      </text><text font-size="11" x="600" y="519.5" text-height="20" class="taskTextOutsideRight taskTextOutside0 ">Edit, Upload, Test </text><text font-size="11" x="111" y="543.5" text-height="20" class="taskTextOutsideRight taskTextOutside1  doneText1">Assign - FD </text><text font-size="11" x="320" y="567.5" text-height="20" class="taskText taskText1 activeText1">Rewrite     </text><text font-size="11" x="570" y="591.5" text-height="20" class="taskTextOutsideRight taskTextOutside1 ">RT receives content      </text><text font-size="11" x="600" y="615.5" text-height="20" class="taskTextOutsideRight taskTextOutside1 ">Edit, Upload, Test </text><text font-size="11" x="111" y="639.5" text-height="20" class="taskTextOutsideRight taskTextOutside2 activeText2">Assign (See social action? Make Tikkun Olam a Dropdown label?!) </text><text font-size="11" x="320" y="663.5" text-height="20" class="taskText taskText2 ">Rewrite     </text><text font-size="11" x="570" y="687.5" text-height="20" class="taskTextOutsideRight taskTextOutside2 ">RT receives content      </text><text font-size="11" x="600" y="711.5" text-height="20" class="taskTextOutsideRight taskTextOutside2 ">Edit, Upload, Test </text><text font-size="11" x="111" y="735.5" text-height="20" class="taskTextOutsideRight taskTextOutside3  doneText3">Assign - EB </text><text font-size="11" x="320" y="759.5" text-height="20" class="taskText taskText3 activeText3">Rewrite     </text><text font-size="11" x="570" y="783.5" text-height="20" class="taskTextOutsideRight taskTextOutside3 ">RT receives content      </text><text font-size="11" x="600" y="807.5" text-height="20" class="taskTextOutsideRight taskTextOutside3 ">Edit, Upload, Test </text><text font-size="11" x="172" y="831.5" text-height="20" class="taskTextOutsideRight taskTextOutside0 activeText0">Assign (to be assigned) </text><text font-size="11" x="111" y="855.5" text-height="20" class="taskTextOutsideRight taskTextOutside0 activeText0">Remove Kitchen Section - RT </text><text font-size="11" x="381" y="879.5" text-height="20" class="taskText taskText0 ">Rewrite     </text><text font-size="11" x="631" y="903.5" text-height="20" class="taskTextOutsideRight taskTextOutside0 ">RT receives content      </text><text font-size="11" x="661" y="927.5" text-height="20" class="taskTextOutsideRight taskTextOutside0 ">Edit, Upload, Test </text><text font-size="11" x="111" y="951.5" text-height="20" class="taskTextOutsideRight taskTextOutside1  doneText1">Assign - JS </text><text font-size="11" x="320" y="975.5" text-height="20" class="taskText taskText1 activeText1">Rewrite     </text><text font-size="11" x="570" y="999.5" text-height="20" class="taskTextOutsideRight taskTextOutside1 ">RT receives content      </text><text font-size="11" x="600" y="1023.5" text-height="20" class="taskTextOutsideRight taskTextOutside1 ">Edit, Upload, Test </text><text font-size="11" x="111" y="1047.5" text-height="20" class="taskTextOutsideRight taskTextOutside2 activeText2">Assign - New Page Under Tikkun Olam </text><text font-size="11" x="194" y="1071.5" text-height="20" class="taskTextOutsideRight taskTextOutside2 ">RT receives old content from RR     </text><text font-size="11" x="224" y="1095.5" text-height="20" class="taskTextOutsideRight taskTextOutside2 ">Edit and Upload Old Content </text><text font-size="11" x="433.5" y="1119.5" text-height="20" class="taskText taskText2 ">Rewrite     </text><text font-size="11" x="643" y="1143.5" text-height="20" class="taskTextOutsideLeft taskTextOutside2 ">RT receives content      </text><text font-size="11" x="673" y="1167.5" text-height="20" class="taskTextOutsideLeft taskTextOutside2 ">Edit, Upload, Test </text><text font-size="11" x="111" y="1191.5" text-height="20" class="taskTextOutsideRight taskTextOutside3  doneText3">Assign - GR </text><text font-size="11" x="320" y="1215.5" text-height="20" class="taskText taskText3 activeText3">Rewrite     </text><text font-size="11" x="570" y="1239.5" text-height="20" class="taskTextOutsideRight taskTextOutside3 ">RT receives content      </text><text font-size="11" x="600" y="1263.5" text-height="20" class="taskTextOutsideRight taskTextOutside3 ">Edit, Upload, Test </text><text font-size="11" x="111" y="1287.5" text-height="20" class="taskTextOutsideRight taskTextOutside0  doneText0">Assign - GR </text><text font-size="11" x="320" y="1311.5" text-height="20" class="taskText taskText0 activeText0">Rewrite     </text><text font-size="11" x="570" y="1335.5" text-height="20" class="taskTextOutsideRight taskTextOutside0 ">RT receives content      </text><text font-size="11" x="600" y="1359.5" text-height="20" class="taskTextOutsideRight taskTextOutside0 ">Edit, Upload, Test </text><text font-size="11" x="111" y="1383.5" text-height="20" class="taskTextOutsideRight taskTextOutside1  doneText1">Assign - MB </text><text font-size="11" x="320" y="1407.5" text-height="20" class="taskText taskText1 activeText1">Rewrite     </text><text font-size="11" x="570" y="1431.5" text-height="20" class="taskTextOutsideRight taskTextOutside1 ">RT receives content      </text><text font-size="11" x="600" y="1455.5" text-height="20" class="taskTextOutsideRight taskTextOutside1 ">Edit, Upload, Test </text><text font-size="11" x="111" y="1479.5" text-height="20" class="taskTextOutsideRight taskTextOutside2  doneText2">Assign - MB </text><text font-size="11" x="320" y="1503.5" text-height="20" class="taskText taskText2 activeText2">Rewrite     </text><text font-size="11" x="570" y="1527.5" text-height="20" class="taskTextOutsideRight taskTextOutside2 ">RT receives content      </text><text font-size="11" x="600" y="1551.5" text-height="20" class="taskTextOutsideRight taskTextOutside2 ">Edit, Upload, Test </text><text font-size="11" x="111" y="1575.5" text-height="20" class="taskTextOutsideRight taskTextOutside3  doneText3">Assign - MB </text><text font-size="11" x="320" y="1599.5" text-height="20" class="taskText taskText3 activeText3">Rewrite     </text><text font-size="11" x="570" y="1623.5" text-height="20" class="taskTextOutsideRight taskTextOutside3 ">RT receives content      </text><text font-size="11" x="600" y="1647.5" text-height="20" class="taskTextOutsideRight taskTextOutside3 ">Edit, Upload, Test </text><text font-size="11" x="111" y="1671.5" text-height="20" class="taskTextOutsideRight taskTextOutside0  doneText0">Assign - EMP        </text><text font-size="11" x="320" y="1695.5" text-height="20" class="taskText taskText0 activeText0">Rewrite     </text><text font-size="11" x="570" y="1719.5" text-height="20" class="taskTextOutsideRight taskTextOutside0 ">RT receives content      </text><text font-size="11" x="600" y="1743.5" text-height="20" class="taskTextOutsideRight taskTextOutside0 ">Edit, Upload, Test </text><text font-size="11" x="111" y="1767.5" text-height="20" class="taskTextOutsideRight taskTextOutside1  doneText1">Assign - SS </text><text font-size="11" x="320" y="1791.5" text-height="20" class="taskText taskText1 activeText1">Rewrite     </text><text font-size="11" x="570" y="1815.5" text-height="20" class="taskTextOutsideRight taskTextOutside1 ">RT receives content      </text><text font-size="11" x="600" y="1839.5" text-height="20" class="taskTextOutsideRight taskTextOutside1 ">Edit, Upload, Test </text><text font-size="11" x="111" y="1863.5" text-height="20" class="taskTextOutsideRight taskTextOutside2  doneText2">Assign - GR </text><text font-size="11" x="320" y="1887.5" text-height="20" class="taskText taskText2 activeText2">Rewrite     </text><text font-size="11" x="570" y="1911.5" text-height="20" class="taskTextOutsideRight taskTextOutside2 ">RT receives content      </text><text font-size="11" x="600" y="1935.5" text-height="20" class="taskTextOutsideRight taskTextOutside2 ">Edit, Upload, Test </text><text font-size="11" x="111" y="1959.5" text-height="20" class="taskTextOutsideRight taskTextOutside3  doneText3">Assign - EB </text><text font-size="11" x="320" y="1983.5" text-height="20" class="taskText taskText3 activeText3">Rewrite     </text><text font-size="11" x="570" y="2007.5" text-height="20" class="taskTextOutsideRight taskTextOutside3 ">RT receives content      </text><text font-size="11" x="600" y="2031.5" text-height="20" class="taskTextOutsideRight taskTextOutside3 ">Edit, Upload, Test </text><text font-size="11" x="111" y="2055.5" text-height="20" class="taskTextOutsideRight taskTextOutside0  doneText0">Assign - eliminate RT      </text><text font-size="11" x="141" y="2079.5" text-height="20" class="taskTextOutsideRight taskTextOutside0 activeText0">Remove      </text><text font-size="11" x="111" y="2103.5" text-height="20" class="taskTextOutsideRight taskTextOutside1  doneText1">Assign - eliminate RT       </text><text font-size="11" x="141" y="2127.5" text-height="20" class="taskTextOutsideRight taskTextOutside1 activeText1">Remove      </text><text font-size="11" x="111" y="2151.5" text-height="20" class="taskTextOutsideRight taskTextOutside2  doneText2">Assign - RB </text><text font-size="11" x="320" y="2175.5" text-height="20" class="taskText taskText2 activeText2">Rewrite     </text><text font-size="11" x="570" y="2199.5" text-height="20" class="taskTextOutsideRight taskTextOutside2 ">RT receives content      </text><text font-size="11" x="600" y="2223.5" text-height="20" class="taskTextOutsideRight taskTextOutside2 ">Edit, Upload, Test </text><text font-size="11" x="111" y="2247.5" text-height="20" class="taskTextOutsideRight taskTextOutside3 activeText3">Assign      </text><text font-size="11" x="111" y="2271.5" text-height="20" class="taskTextOutsideRight taskTextOutside3 activeText3">Remove Chavurah - RT     </text><text font-size="11" x="320" y="2295.5" text-height="20" class="taskText taskText3 ">Rewrite     </text><text font-size="11" x="570" y="2319.5" text-height="20" class="taskTextOutsideRight taskTextOutside3 ">RT receives content      </text><text font-size="11" x="600" y="2343.5" text-height="20" class="taskTextOutsideRight taskTextOutside3 ">Edit, Upload, Test </text></g><g><text x="10" y="98" class="sectionTitle sectionTitle0">Mission Statement</text><text x="10" y="194" class="sectionTitle sectionTitle1">Contact Us</text><text x="10" y="290" class="sectionTitle sectionTitle2">Who's Who</text><text x="10" y="386" class="sectionTitle sectionTitle3">Committees</text><text x="10" y="482" class="sectionTitle sectionTitle0">Stay Connected</text><text x="10" y="578" class="sectionTitle sectionTitle1">Judaica</text><text x="10" y="674" class="sectionTitle sectionTitle2">Tikkun Olam</text><text x="10" y="770" class="sectionTitle sectionTitle3">Contributions</text><text x="10" y="878" class="sectionTitle sectionTitle0">Mitzvot</text><text x="10" y="986" class="sectionTitle sectionTitle1">Donate</text><text x="10" y="1106" class="sectionTitle sectionTitle2">Social Action </text><text x="10" y="1226" class="sectionTitle sectionTitle3">Service Etiquette</text><text x="10" y="1322" class="sectionTitle sectionTitle0">Services</text><text x="10" y="1418" class="sectionTitle sectionTitle1">Religious School</text><text x="10" y="1514" class="sectionTitle sectionTitle2">Nursery School</text><text x="10" y="1610" class="sectionTitle sectionTitle3">Confirmation Class</text><text x="10" y="1706" class="sectionTitle sectionTitle0">Adult Education</text><text x="10" y="1802" class="sectionTitle sectionTitle1">Library</text><text x="10" y="1898" class="sectionTitle sectionTitle2">Ritual</text><text x="10" y="1994" class="sectionTitle sectionTitle3">Sisterhood</text><text x="10" y="2066" class="sectionTitle sectionTitle0">Kadima</text><text x="10" y="2114" class="sectionTitle sectionTitle1">USY </text><text x="10" y="2186" class="sectionTitle sectionTitle2">Men's Club</text><text x="10" y="2294" class="sectionTitle sectionTitle3">Other Clubs</text></g><g class="today"><line x1="97" x2="97" y1="25" y2="2379" class="today"></line></g><text x="392" y="25" class="titleText">Temple Sinai Web Site Rewrite - 2020-05-28T17</text></svg>