<svg id="mermaid-1592592873714" width="100%" xmlns="http://www.w3.org/2000/svg" height="100%" viewBox="0 0 1284 2740"><style>#mermaid-1592592873714 .label{font-family:trebuchet ms,verdana,arial;color:#333}#mermaid-1592592873714 .node circle,#mermaid-1592592873714 .node ellipse,#mermaid-1592592873714 .node polygon,#mermaid-1592592873714 .node rect{fill:#eee;stroke:#999;stroke-width:1px}#mermaid-1592592873714 .node.clickable{cursor:pointer}#mermaid-1592592873714 .arrowheadPath{fill:#333}#mermaid-1592592873714 .edgePath .path{stroke:#666;stroke-width:1.5px}#mermaid-1592592873714 .edgeLabel{background-color:#fff}#mermaid-1592592873714 .cluster rect{fill:#eaf2fb!important;stroke:#26a!important;stroke-width:1px!important}#mermaid-1592592873714 .cluster text{fill:#333}#mermaid-1592592873714 div.mermaidTooltip{position:absolute;text-align:center;max-width:200px;padding:2px;font-family:trebuchet ms,verdana,arial;font-size:12px;background:#eaf2fb;border:1px solid #26a;border-radius:2px;pointer-events:none;z-index:100}#mermaid-1592592873714 .actor{stroke:#999;fill:#eee}#mermaid-1592592873714 text.actor{fill:#333;stroke:none}#mermaid-1592592873714 .actor-line{stroke:#666}#mermaid-1592592873714 .messageLine0{marker-end:"url(#arrowhead)"}#mermaid-1592592873714 .messageLine0,#mermaid-1592592873714 .messageLine1{stroke-width:1.5;stroke-dasharray:"2 2";stroke:#333}#mermaid-1592592873714 #arrowhead{fill:#333}#mermaid-1592592873714 #crosshead path{fill:#333!important;stroke:#333!important}#mermaid-1592592873714 .messageText{fill:#333;stroke:none}#mermaid-1592592873714 .labelBox{stroke:#999;fill:#eee}#mermaid-1592592873714 .labelText,#mermaid-1592592873714 .loopText{fill:#fff;stroke:none}#mermaid-1592592873714 .loopLine{stroke-width:2;stroke-dasharray:"2 2";marker-end:"url(#arrowhead)";stroke:#999}#mermaid-1592592873714 .note{stroke:#770;fill:#ffa}#mermaid-1592592873714 .noteText{fill:#000;stroke:none;font-family:trebuchet ms,verdana,arial;font-size:14px}#mermaid-1592592873714 .section{stroke:none;opacity:.2}#mermaid-1592592873714 .section0,#mermaid-1592592873714 .section2{fill:#80b3e6}#mermaid-1592592873714 .section1,#mermaid-1592592873714 .section3{fill:#fff;opacity:.2}#mermaid-1592592873714 .sectionTitle0,#mermaid-1592592873714 .sectionTitle1,#mermaid-1592592873714 .sectionTitle2,#mermaid-1592592873714 .sectionTitle3{fill:#333}#mermaid-1592592873714 .sectionTitle{text-anchor:start;font-size:11px;text-height:14px}#mermaid-1592592873714 .grid .tick{stroke:#e6e6e6;opacity:.3;shape-rendering:crispEdges}#mermaid-1592592873714 .grid path{stroke-width:0}#mermaid-1592592873714 .today{fill:none;stroke:#d42;stroke-width:2px}#mermaid-1592592873714 .task{stroke-width:2}#mermaid-1592592873714 .taskText{text-anchor:middle;font-size:11px}#mermaid-1592592873714 .taskTextOutsideRight{fill:#333;text-anchor:start;font-size:11px}#mermaid-1592592873714 .taskTextOutsideLeft{fill:#333;text-anchor:end;font-size:11px}#mermaid-1592592873714 .taskText0,#mermaid-1592592873714 .taskText1,#mermaid-1592592873714 .taskText2,#mermaid-1592592873714 .taskText3{fill:#fff}#mermaid-1592592873714 .task0,#mermaid-1592592873714 .task1,#mermaid-1592592873714 .task2,#mermaid-1592592873714 .task3{fill:#26a;stroke:#1a4d80}#mermaid-1592592873714 .taskTextOutside0,#mermaid-1592592873714 .taskTextOutside1,#mermaid-1592592873714 .taskTextOutside2,#mermaid-1592592873714 .taskTextOutside3{fill:#333}#mermaid-1592592873714 .active0,#mermaid-1592592873714 .active1,#mermaid-1592592873714 .active2,#mermaid-1592592873714 .active3{fill:#eee;stroke:#1a4d80}#mermaid-1592592873714 .activeText0,#mermaid-1592592873714 .activeText1,#mermaid-1592592873714 .activeText2,#mermaid-1592592873714 .activeText3{fill:#333!important}#mermaid-1592592873714 .done0,#mermaid-1592592873714 .done1,#mermaid-1592592873714 .done2,#mermaid-1592592873714 .done3{stroke:#666;fill:#bbb;stroke-width:2}#mermaid-1592592873714 .doneText0,#mermaid-1592592873714 .doneText1,#mermaid-1592592873714 .doneText2,#mermaid-1592592873714 .doneText3{fill:#333!important}#mermaid-1592592873714 .crit0,#mermaid-1592592873714 .crit1,#mermaid-1592592873714 .crit2,#mermaid-1592592873714 .crit3{stroke:#b1361b;fill:#d42;stroke-width:2}#mermaid-1592592873714 .activeCrit0,#mermaid-1592592873714 .activeCrit1,#mermaid-1592592873714 .activeCrit2,#mermaid-1592592873714 .activeCrit3{stroke:#b1361b;fill:#eee;stroke-width:2}#mermaid-1592592873714 .doneCrit0,#mermaid-1592592873714 .doneCrit1,#mermaid-1592592873714 .doneCrit2,#mermaid-1592592873714 .doneCrit3{stroke:#b1361b;fill:#bbb;stroke-width:2;cursor:pointer;shape-rendering:crispEdges}#mermaid-1592592873714 .activeCritText0,#mermaid-1592592873714 .activeCritText1,#mermaid-1592592873714 .activeCritText2,#mermaid-1592592873714 .activeCritText3,#mermaid-1592592873714 .doneCritText0,#mermaid-1592592873714 .doneCritText1,#mermaid-1592592873714 .doneCritText2,#mermaid-1592592873714 .doneCritText3{fill:#333!important}#mermaid-1592592873714 .titleText{text-anchor:middle;font-size:18px;fill:#333}#mermaid-1592592873714 g.classGroup text{fill:#999;stroke:none;font-family:trebuchet ms,verdana,arial;font-size:10px}#mermaid-1592592873714 g.classGroup rect{fill:#eee;stroke:#999}#mermaid-1592592873714 g.classGroup line{stroke:#999;stroke-width:1}#mermaid-1592592873714 .classLabel .box{stroke:none;stroke-width:0;fill:#eee;opacity:.5}#mermaid-1592592873714 .classLabel .label{fill:#999;font-size:10px}#mermaid-1592592873714 .relation{stroke:#999;stroke-width:1;fill:none}#mermaid-1592592873714 #compositionEnd,#mermaid-1592592873714 #compositionStart{fill:#999;stroke:#999;stroke-width:1}#mermaid-1592592873714 #aggregationEnd,#mermaid-1592592873714 #aggregationStart{fill:#eee;stroke:#999;stroke-width:1}#mermaid-1592592873714 #dependencyEnd,#mermaid-1592592873714 #dependencyStart,#mermaid-1592592873714 #extensionEnd,#mermaid-1592592873714 #extensionStart{fill:#999;stroke:#999;stroke-width:1}#mermaid-1592592873714 .branch-label,#mermaid-1592592873714 .commit-id,#mermaid-1592592873714 .commit-msg{fill:#d3d3d3;color:#d3d3d3}</style><style>#mermaid-1592592873714 {
    color: rgb(0, 0, 0);
    font: normal normal 400 normal 16px / normal "Times New Roman";
  }</style><g></g><g class="grid" transform="translate(75, 2690)" fill="none" font-size="10" font-family="sans-serif" text-anchor="middle"><path class="domain" stroke="#000" d="M0.5,-2655V0.5H1134.5V-2655"></path><g class="tick" opacity="1" transform="translate(58.5,0)"><line stroke="#000" y2="-2655"></line><text fill="#000" y="3" dy="1em" stroke="none" font-size="10" style="text-anchor: middle;">05-31</text></g><g class="tick" opacity="1" transform="translate(192.5,0)"><line stroke="#000" y2="-2655"></line><text fill="#000" y="3" dy="1em" stroke="none" font-size="10" style="text-anchor: middle;">06-07</text></g><g class="tick" opacity="1" transform="translate(327.5,0)"><line stroke="#000" y2="-2655"></line><text fill="#000" y="3" dy="1em" stroke="none" font-size="10" style="text-anchor: middle;">06-14</text></g><g class="tick" opacity="1" transform="translate(461.5,0)"><line stroke="#000" y2="-2655"></line><text fill="#000" y="3" dy="1em" stroke="none" font-size="10" style="text-anchor: middle;">06-21</text></g><g class="tick" opacity="1" transform="translate(596.5,0)"><line stroke="#000" y2="-2655"></line><text fill="#000" y="3" dy="1em" stroke="none" font-size="10" style="text-anchor: middle;">06-28</text></g><g class="tick" opacity="1" transform="translate(730.5,0)"><line stroke="#000" y2="-2655"></line><text fill="#000" y="3" dy="1em" stroke="none" font-size="10" style="text-anchor: middle;">07-05</text></g><g class="tick" opacity="1" transform="translate(865.5,0)"><line stroke="#000" y2="-2655"></line><text fill="#000" y="3" dy="1em" stroke="none" font-size="10" style="text-anchor: middle;">07-12</text></g><g class="tick" opacity="1" transform="translate(999.5,0)"><line stroke="#000" y2="-2655"></line><text fill="#000" y="3" dy="1em" stroke="none" font-size="10" style="text-anchor: middle;">07-19</text></g><g class="tick" opacity="1" transform="translate(1134.5,0)"><line stroke="#000" y2="-2655"></line><text fill="#000" y="3" dy="1em" stroke="none" font-size="10" style="text-anchor: middle;">07-26</text></g></g><g><rect x="0" y="48" width="1246.5" height="24" class="section section0"></rect><rect x="0" y="72" width="1246.5" height="24" class="section section0"></rect><rect x="0" y="96" width="1246.5" height="24" class="section section0"></rect><rect x="0" y="120" width="1246.5" height="24" class="section section0"></rect><rect x="0" y="144" width="1246.5" height="24" class="section section0"></rect><rect x="0" y="168" width="1246.5" height="24" class="section section1"></rect><rect x="0" y="192" width="1246.5" height="24" class="section section1"></rect><rect x="0" y="216" width="1246.5" height="24" class="section section1"></rect><rect x="0" y="240" width="1246.5" height="24" class="section section1"></rect><rect x="0" y="264" width="1246.5" height="24" class="section section2"></rect><rect x="0" y="288" width="1246.5" height="24" class="section section2"></rect><rect x="0" y="312" width="1246.5" height="24" class="section section2"></rect><rect x="0" y="336" width="1246.5" height="24" class="section section2"></rect><rect x="0" y="360" width="1246.5" height="24" class="section section3"></rect><rect x="0" y="384" width="1246.5" height="24" class="section section3"></rect><rect x="0" y="408" width="1246.5" height="24" class="section section3"></rect><rect x="0" y="432" width="1246.5" height="24" class="section section3"></rect><rect x="0" y="456" width="1246.5" height="24" class="section section0"></rect><rect x="0" y="480" width="1246.5" height="24" class="section section0"></rect><rect x="0" y="504" width="1246.5" height="24" class="section section0"></rect><rect x="0" y="528" width="1246.5" height="24" class="section section0"></rect><rect x="0" y="552" width="1246.5" height="24" class="section section1"></rect><rect x="0" y="576" width="1246.5" height="24" class="section section1"></rect><rect x="0" y="600" width="1246.5" height="24" class="section section1"></rect><rect x="0" y="624" width="1246.5" height="24" class="section section1"></rect><rect x="0" y="648" width="1246.5" height="24" class="section section2"></rect><rect x="0" y="672" width="1246.5" height="24" class="section section2"></rect><rect x="0" y="696" width="1246.5" height="24" class="section section2"></rect><rect x="0" y="720" width="1246.5" height="24" class="section section2"></rect><rect x="0" y="744" width="1246.5" height="24" class="section section3"></rect><rect x="0" y="768" width="1246.5" height="24" class="section section3"></rect><rect x="0" y="792" width="1246.5" height="24" class="section section3"></rect><rect x="0" y="816" width="1246.5" height="24" class="section section3"></rect><rect x="0" y="840" width="1246.5" height="24" class="section section3"></rect><rect x="0" y="864" width="1246.5" height="24" class="section section3"></rect><rect x="0" y="888" width="1246.5" height="24" class="section section0"></rect><rect x="0" y="912" width="1246.5" height="24" class="section section0"></rect><rect x="0" y="936" width="1246.5" height="24" class="section section0"></rect><rect x="0" y="960" width="1246.5" height="24" class="section section0"></rect><rect x="0" y="984" width="1246.5" height="24" class="section section0"></rect><rect x="0" y="1008" width="1246.5" height="24" class="section section1"></rect><rect x="0" y="1032" width="1246.5" height="24" class="section section1"></rect><rect x="0" y="1056" width="1246.5" height="24" class="section section1"></rect><rect x="0" y="1080" width="1246.5" height="24" class="section section1"></rect><rect x="0" y="1104" width="1246.5" height="24" class="section section1"></rect><rect x="0" y="1128" width="1246.5" height="24" class="section section2"></rect><rect x="0" y="1152" width="1246.5" height="24" class="section section2"></rect><rect x="0" y="1176" width="1246.5" height="24" class="section section2"></rect><rect x="0" y="1200" width="1246.5" height="24" class="section section2"></rect><rect x="0" y="1224" width="1246.5" height="24" class="section section2"></rect><rect x="0" y="1248" width="1246.5" height="24" class="section section2"></rect><rect x="0" y="1272" width="1246.5" height="24" class="section section3"></rect><rect x="0" y="1296" width="1246.5" height="24" class="section section3"></rect><rect x="0" y="1320" width="1246.5" height="24" class="section section3"></rect><rect x="0" y="1344" width="1246.5" height="24" class="section section3"></rect><rect x="0" y="1368" width="1246.5" height="24" class="section section0"></rect><rect x="0" y="1392" width="1246.5" height="24" class="section section0"></rect><rect x="0" y="1416" width="1246.5" height="24" class="section section0"></rect><rect x="0" y="1440" width="1246.5" height="24" class="section section0"></rect><rect x="0" y="1464" width="1246.5" height="24" class="section section1"></rect><rect x="0" y="1488" width="1246.5" height="24" class="section section1"></rect><rect x="0" y="1512" width="1246.5" height="24" class="section section1"></rect><rect x="0" y="1536" width="1246.5" height="24" class="section section1"></rect><rect x="0" y="1560" width="1246.5" height="24" class="section section2"></rect><rect x="0" y="1584" width="1246.5" height="24" class="section section2"></rect><rect x="0" y="1608" width="1246.5" height="24" class="section section2"></rect><rect x="0" y="1632" width="1246.5" height="24" class="section section2"></rect><rect x="0" y="1656" width="1246.5" height="24" class="section section3"></rect><rect x="0" y="1680" width="1246.5" height="24" class="section section3"></rect><rect x="0" y="1704" width="1246.5" height="24" class="section section3"></rect><rect x="0" y="1728" width="1246.5" height="24" class="section section3"></rect><rect x="0" y="1752" width="1246.5" height="24" class="section section0"></rect><rect x="0" y="1776" width="1246.5" height="24" class="section section0"></rect><rect x="0" y="1800" width="1246.5" height="24" class="section section0"></rect><rect x="0" y="1824" width="1246.5" height="24" class="section section0"></rect><rect x="0" y="1848" width="1246.5" height="24" class="section section1"></rect><rect x="0" y="1872" width="1246.5" height="24" class="section section1"></rect><rect x="0" y="1896" width="1246.5" height="24" class="section section1"></rect><rect x="0" y="1920" width="1246.5" height="24" class="section section1"></rect><rect x="0" y="1944" width="1246.5" height="24" class="section section2"></rect><rect x="0" y="1968" width="1246.5" height="24" class="section section2"></rect><rect x="0" y="1992" width="1246.5" height="24" class="section section2"></rect><rect x="0" y="2016" width="1246.5" height="24" class="section section2"></rect><rect x="0" y="2040" width="1246.5" height="24" class="section section3"></rect><rect x="0" y="2064" width="1246.5" height="24" class="section section3"></rect><rect x="0" y="2088" width="1246.5" height="24" class="section section3"></rect><rect x="0" y="2112" width="1246.5" height="24" class="section section3"></rect><rect x="0" y="2136" width="1246.5" height="24" class="section section0"></rect><rect x="0" y="2160" width="1246.5" height="24" class="section section0"></rect><rect x="0" y="2184" width="1246.5" height="24" class="section section1"></rect><rect x="0" y="2208" width="1246.5" height="24" class="section section1"></rect><rect x="0" y="2232" width="1246.5" height="24" class="section section2"></rect><rect x="0" y="2256" width="1246.5" height="24" class="section section2"></rect><rect x="0" y="2280" width="1246.5" height="24" class="section section2"></rect><rect x="0" y="2304" width="1246.5" height="24" class="section section2"></rect><rect x="0" y="2328" width="1246.5" height="24" class="section section2"></rect><rect x="0" y="2352" width="1246.5" height="24" class="section section2"></rect><rect x="0" y="2376" width="1246.5" height="24" class="section section3"></rect><rect x="0" y="2400" width="1246.5" height="24" class="section section3"></rect><rect x="0" y="2424" width="1246.5" height="24" class="section section3"></rect><rect x="0" y="2448" width="1246.5" height="24" class="section section3"></rect><rect x="0" y="2472" width="1246.5" height="24" class="section section3"></rect><rect x="0" y="2496" width="1246.5" height="24" class="section section0"></rect><rect x="0" y="2520" width="1246.5" height="24" class="section section0"></rect><rect x="0" y="2544" width="1246.5" height="24" class="section section0"></rect><rect x="0" y="2568" width="1246.5" height="24" class="section section0"></rect><rect x="0" y="2592" width="1246.5" height="24" class="section section1"></rect><rect x="0" y="2616" width="1246.5" height="24" class="section section1"></rect><rect x="0" y="2640" width="1246.5" height="24" class="section section1"></rect><rect x="0" y="2664" width="1246.5" height="24" class="section section1"></rect></g><g><rect rx="3" ry="3" x="75" y="50" width="19" height="20" class="task  done0"></rect><rect rx="3" ry="3" x="94" y="74" width="404" height="20" class="task  active0"></rect><rect rx="3" ry="3" x="498" y="98" width="269" height="20" class="task  task0"></rect><rect rx="3" ry="3" x="767" y="122" width="19" height="20" class="task  task0"></rect><rect rx="3" ry="3" x="786" y="146" width="19" height="20" class="task  task0"></rect><rect rx="3" ry="3" x="75" y="170" width="19" height="20" class="task  done1"></rect><rect rx="3" ry="3" x="94" y="194" width="365" height="20" class="task  done1"></rect><rect rx="3" ry="3" x="459" y="218" width="20" height="20" class="task  done1"></rect><rect rx="3" ry="3" x="479" y="242" width="38" height="20" class="task  active1"></rect><rect rx="3" ry="3" x="75" y="266" width="19" height="20" class="task  done2"></rect><rect rx="3" ry="3" x="94" y="290" width="404" height="20" class="task  active2"></rect><rect rx="3" ry="3" x="498" y="314" width="19" height="20" class="task  task2"></rect><rect rx="3" ry="3" x="517" y="338" width="19" height="20" class="task  task2"></rect><rect rx="3" ry="3" x="75" y="362" width="19" height="20" class="task  done3"></rect><rect rx="3" ry="3" x="94" y="386" width="404" height="20" class="task  active3"></rect><rect rx="3" ry="3" x="498" y="410" width="19" height="20" class="task  task3"></rect><rect rx="3" ry="3" x="517" y="434" width="19" height="20" class="task  task3"></rect><rect rx="3" ry="3" x="75" y="458" width="19" height="20" class="task  done0"></rect><rect rx="3" ry="3" x="94" y="482" width="404" height="20" class="task  active0"></rect><rect rx="3" ry="3" x="498" y="506" width="19" height="20" class="task  task0"></rect><rect rx="3" ry="3" x="517" y="530" width="19" height="20" class="task  task0"></rect><rect rx="3" ry="3" x="75" y="554" width="19" height="20" class="task  done1"></rect><rect rx="3" ry="3" x="94" y="578" width="404" height="20" class="task  active1"></rect><rect rx="3" ry="3" x="498" y="602" width="19" height="20" class="task  task1"></rect><rect rx="3" ry="3" x="517" y="626" width="19" height="20" class="task  task1"></rect><rect rx="3" ry="3" x="75" y="650" width="269" height="20" class="task  task2"></rect><rect rx="3" ry="3" x="344" y="674" width="269" height="20" class="task  task2"></rect><rect rx="3" ry="3" x="613" y="698" width="19" height="20" class="task  task2"></rect><rect rx="3" ry="3" x="632" y="722" width="20" height="20" class="task  task2"></rect><rect rx="3" ry="3" x="75" y="746" width="19" height="20" class="task  done3"></rect><rect rx="3" ry="3" x="94" y="770" width="673" height="20" class="task  crit3"></rect><rect rx="3" ry="3" x="767" y="794" width="404" height="20" class="task  active3"></rect><rect rx="3" ry="3" x="1171" y="818" width="19" height="20" class="task  task3"></rect><rect rx="3" ry="3" x="1190" y="842" width="19" height="20" class="task  task3"></rect><rect rx="3" ry="3" x="421" y="866" width="19" height="20" class="task  done3"></rect><rect rx="3" ry="3" x="75" y="890" width="269" height="20" class="task  task0"></rect><rect rx="3" ry="3" x="75" y="914" width="58" height="20" class="task  done0"></rect><rect rx="3" ry="3" x="344" y="938" width="269" height="20" class="task  task0"></rect><rect rx="3" ry="3" x="613" y="962" width="19" height="20" class="task  task0"></rect><rect rx="3" ry="3" x="632" y="986" width="20" height="20" class="task  task0"></rect><rect rx="3" ry="3" x="75" y="1010" width="19" height="20" class="task  done1"></rect><rect rx="3" ry="3" x="94" y="1034" width="673" height="20" class="task  crit1"></rect><rect rx="3" ry="3" x="767" y="1058" width="404" height="20" class="task  active1"></rect><rect rx="3" ry="3" x="1171" y="1082" width="19" height="20" class="task  task1"></rect><rect rx="3" ry="3" x="1190" y="1106" width="19" height="20" class="task  task1"></rect><rect rx="3" ry="3" x="459" y="1130" width="20" height="20" class="task  done2"></rect><rect rx="3" ry="3" x="498" y="1154" width="58" height="20" class="task  task2"></rect><rect rx="3" ry="3" x="556" y="1178" width="19" height="20" class="task  active2"></rect><rect rx="3" ry="3" x="575" y="1202" width="269" height="20" class="task  task2"></rect><rect rx="3" ry="3" x="844" y="1226" width="19" height="20" class="task  task2"></rect><rect rx="3" ry="3" x="863" y="1250" width="19" height="20" class="task  task2"></rect><rect rx="3" ry="3" x="75" y="1274" width="19" height="20" class="task  done3"></rect><rect rx="3" ry="3" x="94" y="1298" width="404" height="20" class="task  active3"></rect><rect rx="3" ry="3" x="498" y="1322" width="19" height="20" class="task  task3"></rect><rect rx="3" ry="3" x="517" y="1346" width="19" height="20" class="task  task3"></rect><rect rx="3" ry="3" x="75" y="1370" width="19" height="20" class="task  done0"></rect><rect rx="3" ry="3" x="94" y="1394" width="404" height="20" class="task  active0"></rect><rect rx="3" ry="3" x="498" y="1418" width="19" height="20" class="task  task0"></rect><rect rx="3" ry="3" x="517" y="1442" width="19" height="20" class="task  task0"></rect><rect rx="3" ry="3" x="75" y="1466" width="19" height="20" class="task  done1"></rect><rect rx="3" ry="3" x="94" y="1490" width="404" height="20" class="task  active1"></rect><rect rx="3" ry="3" x="498" y="1514" width="19" height="20" class="task  task1"></rect><rect rx="3" ry="3" x="517" y="1538" width="19" height="20" class="task  task1"></rect><rect rx="3" ry="3" x="75" y="1562" width="19" height="20" class="task  done2"></rect><rect rx="3" ry="3" x="94" y="1586" width="404" height="20" class="task  active2"></rect><rect rx="3" ry="3" x="498" y="1610" width="19" height="20" class="task  task2"></rect><rect rx="3" ry="3" x="517" y="1634" width="19" height="20" class="task  task2"></rect><rect rx="3" ry="3" x="75" y="1658" width="19" height="20" class="task  done3"></rect><rect rx="3" ry="3" x="94" y="1682" width="404" height="20" class="task  active3"></rect><rect rx="3" ry="3" x="498" y="1706" width="19" height="20" class="task  task3"></rect><rect rx="3" ry="3" x="517" y="1730" width="19" height="20" class="task  task3"></rect><rect rx="3" ry="3" x="75" y="1754" width="19" height="20" class="task  done0"></rect><rect rx="3" ry="3" x="94" y="1778" width="404" height="20" class="task  active0"></rect><rect rx="3" ry="3" x="498" y="1802" width="19" height="20" class="task  task0"></rect><rect rx="3" ry="3" x="517" y="1826" width="19" height="20" class="task  task0"></rect><rect rx="3" ry="3" x="75" y="1850" width="19" height="20" class="task  done1"></rect><rect rx="3" ry="3" x="94" y="1874" width="404" height="20" class="task  active1"></rect><rect rx="3" ry="3" x="498" y="1898" width="19" height="20" class="task  task1"></rect><rect rx="3" ry="3" x="517" y="1922" width="19" height="20" class="task  task1"></rect><rect rx="3" ry="3" x="75" y="1946" width="19" height="20" class="task  done2"></rect><rect rx="3" ry="3" x="94" y="1970" width="404" height="20" class="task  active2"></rect><rect rx="3" ry="3" x="498" y="1994" width="19" height="20" class="task  task2"></rect><rect rx="3" ry="3" x="517" y="2018" width="19" height="20" class="task  task2"></rect><rect rx="3" ry="3" x="75" y="2042" width="19" height="20" class="task  done3"></rect><rect rx="3" ry="3" x="94" y="2066" width="135" height="20" class="task  done3"></rect><rect rx="3" ry="3" x="229" y="2090" width="19" height="20" class="task  done3"></rect><rect rx="3" ry="3" x="248" y="2114" width="58" height="20" class="task  done3"></rect><rect rx="3" ry="3" x="75" y="2138" width="19" height="20" class="task  done0"></rect><rect rx="3" ry="3" x="94" y="2162" width="58" height="20" class="task  done0"></rect><rect rx="3" ry="3" x="75" y="2186" width="19" height="20" class="task  done1"></rect><rect rx="3" ry="3" x="94" y="2210" width="58" height="20" class="task  done1"></rect><rect rx="3" ry="3" x="75" y="2234" width="19" height="20" class="task  done2"></rect><rect rx="3" ry="3" x="94" y="2258" width="96" height="20" class="task  done2"></rect><rect rx="3" ry="3" x="171" y="2282" width="19" height="20" class="task  done2"></rect><rect rx="3" ry="3" x="171" y="2306" width="19" height="20" class="task  done2"></rect><rect rx="3" ry="3" x="306" y="2330" width="19" height="20" class="task  done2"></rect><rect rx="3" ry="3" x="325" y="2354" width="58" height="20" class="task  done2"></rect><rect rx="3" ry="3" x="75" y="2378" width="269" height="20" class="task  task3"></rect><rect rx="3" ry="3" x="75" y="2402" width="58" height="20" class="task  done3"></rect><rect rx="3" ry="3" x="344" y="2426" width="269" height="20" class="task  task3"></rect><rect rx="3" ry="3" x="613" y="2450" width="19" height="20" class="task  task3"></rect><rect rx="3" ry="3" x="632" y="2474" width="20" height="20" class="task  task3"></rect><rect rx="3" ry="3" x="75" y="2498" width="269" height="20" class="task  task0"></rect><rect rx="3" ry="3" x="344" y="2522" width="269" height="20" class="task  task0"></rect><rect rx="3" ry="3" x="613" y="2546" width="19" height="20" class="task  task0"></rect><rect rx="3" ry="3" x="632" y="2570" width="20" height="20" class="task  task0"></rect><rect rx="3" ry="3" x="75" y="2594" width="269" height="20" class="task  task1"></rect><rect rx="3" ry="3" x="344" y="2618" width="269" height="20" class="task  task1"></rect><rect rx="3" ry="3" x="613" y="2642" width="19" height="20" class="task  task1"></rect><rect rx="3" ry="3" x="632" y="2666" width="20" height="20" class="task  task1"></rect><text font-size="11" x="99" y="63.5" text-height="20" class="taskTextOutsideRight taskTextOutside0  doneText0">Assign      </text><text font-size="11" x="296" y="87.5" text-height="20" class="taskText taskText0 activeText0">Review/Rewrite - AE &amp; RR   </text><text font-size="11" x="632.5" y="111.5" text-height="20" class="taskText taskText0 ">Additional Review - JS, ?? </text><text font-size="11" x="791" y="135.5" text-height="20" class="taskTextOutsideRight taskTextOutside0 ">RT Receives Content   </text><text font-size="11" x="810" y="159.5" text-height="20" class="taskTextOutsideRight taskTextOutside0 ">RT Edits, Uploads, Tests </text><text font-size="11" x="99" y="183.5" text-height="20" class="taskTextOutsideRight taskTextOutside1  doneText1">Assign      </text><text font-size="11" x="276.5" y="207.5" text-height="20" class="taskText taskText1  doneText1">Review/Rewrite - RR    </text><text font-size="11" x="484" y="231.5" text-height="20" class="taskTextOutsideRight taskTextOutside1  doneText1">RT Receives Content      </text><text font-size="11" x="522" y="255.5" text-height="20" class="taskTextOutsideRight taskTextOutside1 activeText1">RT Edits, Uploads, Tests </text><text font-size="11" x="99" y="279.5" text-height="20" class="taskTextOutsideRight taskTextOutside2  doneText2">Assign      </text><text font-size="11" x="296" y="303.5" text-height="20" class="taskText taskText2 activeText2">Review/Rewrite - JS, SB, New BOD    </text><text font-size="11" x="522" y="327.5" text-height="20" class="taskTextOutsideRight taskTextOutside2 ">RT Receives Content      </text><text font-size="11" x="541" y="351.5" text-height="20" class="taskTextOutsideRight taskTextOutside2 ">RT Edits, Uploads, Tests </text><text font-size="11" x="99" y="375.5" text-height="20" class="taskTextOutsideRight taskTextOutside3  doneText3">Assign      </text><text font-size="11" x="296" y="399.5" text-height="20" class="taskText taskText3 activeText3">Review/Rewrite - SB, JS    </text><text font-size="11" x="522" y="423.5" text-height="20" class="taskTextOutsideRight taskTextOutside3 ">RT Receives Content      </text><text font-size="11" x="541" y="447.5" text-height="20" class="taskTextOutsideRight taskTextOutside3 ">RT Edits, Uploads, Tests </text><text font-size="11" x="99" y="471.5" text-height="20" class="taskTextOutsideRight taskTextOutside0  doneText0">Assign      </text><text font-size="11" x="296" y="495.5" text-height="20" class="taskText taskText0 activeText0">Review/Rewrite - TR    </text><text font-size="11" x="522" y="519.5" text-height="20" class="taskTextOutsideRight taskTextOutside0 ">RT Receives Content      </text><text font-size="11" x="541" y="543.5" text-height="20" class="taskTextOutsideRight taskTextOutside0 ">RT Edits, Uploads, Tests </text><text font-size="11" x="99" y="567.5" text-height="20" class="taskTextOutsideRight taskTextOutside1  doneText1">Assign      </text><text font-size="11" x="296" y="591.5" text-height="20" class="taskText taskText1 activeText1">Review/Rewrite - FD    </text><text font-size="11" x="522" y="615.5" text-height="20" class="taskTextOutsideRight taskTextOutside1 ">RT Receives Content      </text><text font-size="11" x="541" y="639.5" text-height="20" class="taskTextOutsideRight taskTextOutside1 ">RT Edits, Uploads, Tests </text><text font-size="11" x="349" y="663.5" text-height="20" class="taskTextOutsideRight taskTextOutside2 ">Assign (See social action? Make Tikkun Olam a Dropdown label?!) </text><text font-size="11" x="478.5" y="687.5" text-height="20" class="taskText taskText2 ">Review/Rewrite     </text><text font-size="11" x="637" y="711.5" text-height="20" class="taskTextOutsideRight taskTextOutside2 ">RT Receives Content      </text><text font-size="11" x="657" y="735.5" text-height="20" class="taskTextOutsideRight taskTextOutside2 ">RT Edits, Uploads, Tests </text><text font-size="11" x="99" y="759.5" text-height="20" class="taskTextOutsideRight taskTextOutside3  doneText3">Assign      </text><text font-size="11" x="430.5" y="783.5" text-height="20" class="taskText taskText3  critText3">Evaluate Rakefet    </text><text font-size="11" x="969" y="807.5" text-height="20" class="taskText taskText3 activeText3">Review/Rewrite -EB    </text><text font-size="11" x="1166" y="831.5" text-height="20" class="taskTextOutsideLeft taskTextOutside3 ">RT Receives Content      </text><text font-size="11" x="1185" y="855.5" text-height="20" class="taskTextOutsideLeft taskTextOutside3 ">RT Edits, Uploads, Tests </text><text font-size="11" x="445" y="879.5" text-height="20" class="taskTextOutsideRight taskTextOutside3  doneText3">Car donation deleted - RT </text><text font-size="11" x="209.5" y="903.5" text-height="20" class="taskText taskText0 ">Assign (to be assigned) </text><text font-size="11" x="138" y="927.5" text-height="20" class="taskTextOutsideRight taskTextOutside0  doneText0">Remove Kitchen Section (commented out) - RT </text><text font-size="11" x="478.5" y="951.5" text-height="20" class="taskText taskText0 ">Review/Rewrite     </text><text font-size="11" x="637" y="975.5" text-height="20" class="taskTextOutsideRight taskTextOutside0 ">RT Receives Content      </text><text font-size="11" x="657" y="999.5" text-height="20" class="taskTextOutsideRight taskTextOutside0 ">RT Edits, Uploads, Tests </text><text font-size="11" x="99" y="1023.5" text-height="20" class="taskTextOutsideRight taskTextOutside1  doneText1">Assign       </text><text font-size="11" x="430.5" y="1047.5" text-height="20" class="taskText taskText1  critText1">Evaluate Rakefet JS, RR    </text><text font-size="11" x="969" y="1071.5" text-height="20" class="taskText taskText1 activeText1">Review/Rewrite - JS    </text><text font-size="11" x="1166" y="1095.5" text-height="20" class="taskTextOutsideLeft taskTextOutside1 ">RT Receives Content      </text><text font-size="11" x="1185" y="1119.5" text-height="20" class="taskTextOutsideLeft taskTextOutside1 ">RT Edits, Uploads, Tests </text><text font-size="11" x="484" y="1143.5" text-height="20" class="taskTextOutsideRight taskTextOutside2  doneText2">RT receives old content from RR     </text><text font-size="11" x="561" y="1167.5" text-height="20" class="taskTextOutsideRight taskTextOutside2 ">Edit and Upload Old Content </text><text font-size="11" x="580" y="1191.5" text-height="20" class="taskTextOutsideRight taskTextOutside2 activeText2">Create Menu Item under Tikkun Olam - RT </text><text font-size="11" x="709.5" y="1215.5" text-height="20" class="taskText taskText2 ">Review/Rewrite - someone from Social Action committee    </text><text font-size="11" x="868" y="1239.5" text-height="20" class="taskTextOutsideRight taskTextOutside2 ">RT Receives Content      </text><text font-size="11" x="887" y="1263.5" text-height="20" class="taskTextOutsideRight taskTextOutside2 ">RT Edits, Uploads, Tests </text><text font-size="11" x="99" y="1287.5" text-height="20" class="taskTextOutsideRight taskTextOutside3  doneText3">Assign      </text><text font-size="11" x="296" y="1311.5" text-height="20" class="taskText taskText3 activeText3">Review/Rewrite - GR    </text><text font-size="11" x="522" y="1335.5" text-height="20" class="taskTextOutsideRight taskTextOutside3 ">RT Receives Content      </text><text font-size="11" x="541" y="1359.5" text-height="20" class="taskTextOutsideRight taskTextOutside3 ">RT Edits, Uploads, Tests </text><text font-size="11" x="99" y="1383.5" text-height="20" class="taskTextOutsideRight taskTextOutside0  doneText0">Assign      </text><text font-size="11" x="296" y="1407.5" text-height="20" class="taskText taskText0 activeText0">Review/Rewrite - GR    </text><text font-size="11" x="522" y="1431.5" text-height="20" class="taskTextOutsideRight taskTextOutside0 ">RT Receives Content      </text><text font-size="11" x="541" y="1455.5" text-height="20" class="taskTextOutsideRight taskTextOutside0 ">RT Edits, Uploads, Tests </text><text font-size="11" x="99" y="1479.5" text-height="20" class="taskTextOutsideRight taskTextOutside1  doneText1">Assign      </text><text font-size="11" x="296" y="1503.5" text-height="20" class="taskText taskText1 activeText1">Review/Rewrite - MB     </text><text font-size="11" x="522" y="1527.5" text-height="20" class="taskTextOutsideRight taskTextOutside1 ">RT Receives Content      </text><text font-size="11" x="541" y="1551.5" text-height="20" class="taskTextOutsideRight taskTextOutside1 ">RT Edits, Uploads, Tests </text><text font-size="11" x="99" y="1575.5" text-height="20" class="taskTextOutsideRight taskTextOutside2  doneText2">Assign      </text><text font-size="11" x="296" y="1599.5" text-height="20" class="taskText taskText2 activeText2">Review/Rewrite - MB    </text><text font-size="11" x="522" y="1623.5" text-height="20" class="taskTextOutsideRight taskTextOutside2 ">RT Receives Content      </text><text font-size="11" x="541" y="1647.5" text-height="20" class="taskTextOutsideRight taskTextOutside2 ">RT Edits, Uploads, Tests </text><text font-size="11" x="99" y="1671.5" text-height="20" class="taskTextOutsideRight taskTextOutside3  doneText3">Assign      </text><text font-size="11" x="296" y="1695.5" text-height="20" class="taskText taskText3 activeText3">Review/Rewrite - MB    </text><text font-size="11" x="522" y="1719.5" text-height="20" class="taskTextOutsideRight taskTextOutside3 ">RT Receives Content      </text><text font-size="11" x="541" y="1743.5" text-height="20" class="taskTextOutsideRight taskTextOutside3 ">RT Edits, Uploads, Tests </text><text font-size="11" x="99" y="1767.5" text-height="20" class="taskTextOutsideRight taskTextOutside0  doneText0">Assign        </text><text font-size="11" x="296" y="1791.5" text-height="20" class="taskText taskText0 activeText0">Review/Rewrite - EMP    </text><text font-size="11" x="522" y="1815.5" text-height="20" class="taskTextOutsideRight taskTextOutside0 ">RT Receives Content      </text><text font-size="11" x="541" y="1839.5" text-height="20" class="taskTextOutsideRight taskTextOutside0 ">RT Edits, Uploads, Tests </text><text font-size="11" x="99" y="1863.5" text-height="20" class="taskTextOutsideRight taskTextOutside1  doneText1">Assign       </text><text font-size="11" x="296" y="1887.5" text-height="20" class="taskText taskText1 activeText1">Review/Rewrite  - SS   </text><text font-size="11" x="522" y="1911.5" text-height="20" class="taskTextOutsideRight taskTextOutside1 ">RT Receives Content      </text><text font-size="11" x="541" y="1935.5" text-height="20" class="taskTextOutsideRight taskTextOutside1 ">RT Edits, Uploads, Tests </text><text font-size="11" x="99" y="1959.5" text-height="20" class="taskTextOutsideRight taskTextOutside2  doneText2">Assign      </text><text font-size="11" x="296" y="1983.5" text-height="20" class="taskText taskText2 activeText2">Review/Rewrite  - GR    </text><text font-size="11" x="522" y="2007.5" text-height="20" class="taskTextOutsideRight taskTextOutside2 ">RT Receives Content      </text><text font-size="11" x="541" y="2031.5" text-height="20" class="taskTextOutsideRight taskTextOutside2 ">RT Edits, Uploads, Tests </text><text font-size="11" x="99" y="2055.5" text-height="20" class="taskTextOutsideRight taskTextOutside3  doneText3">Assign      </text><text font-size="11" x="161.5" y="2079.5" text-height="20" class="taskText taskText3  doneText3">Review/Rewrite  - EB    </text><text font-size="11" x="253" y="2103.5" text-height="20" class="taskTextOutsideRight taskTextOutside3  doneText3">RT Receives Content (Friday, 5p)     </text><text font-size="11" x="311" y="2127.5" text-height="20" class="taskTextOutsideRight taskTextOutside3  doneText3">RT Edits, Uploads, Tests </text><text font-size="11" x="99" y="2151.5" text-height="20" class="taskTextOutsideRight taskTextOutside0  doneText0">Assign      </text><text font-size="11" x="157" y="2175.5" text-height="20" class="taskTextOutsideRight taskTextOutside0  doneText0">Remove - RT (removed from menu and unpublished)   </text><text font-size="11" x="99" y="2199.5" text-height="20" class="taskTextOutsideRight taskTextOutside1  doneText1">Assign      </text><text font-size="11" x="157" y="2223.5" text-height="20" class="taskTextOutsideRight taskTextOutside1  doneText1">Remove - RT (removed from menu and unpublished) </text><text font-size="11" x="99" y="2247.5" text-height="20" class="taskTextOutsideRight taskTextOutside2  doneText2">Assign      </text><text font-size="11" x="142" y="2271.5" text-height="20" class="taskText taskText2  doneText2">Review/Rewrite - RB    </text><text font-size="11" x="195" y="2295.5" text-height="20" class="taskTextOutsideRight taskTextOutside2  doneText2">RT Receives Content      </text><text font-size="11" x="195" y="2319.5" text-height="20" class="taskTextOutsideRight taskTextOutside2  doneText2">RT Edits, Uploads, Tests </text><text font-size="11" x="330" y="2343.5" text-height="20" class="taskTextOutsideRight taskTextOutside2  doneText2">Rose submits Re-edit        </text><text font-size="11" x="388" y="2367.5" text-height="20" class="taskTextOutsideRight taskTextOutside2  doneText2">RT Edits, Uploads, Tests    </text><text font-size="11" x="209.5" y="2391.5" text-height="20" class="taskText taskText3 ">Assign      </text><text font-size="11" x="138" y="2415.5" text-height="20" class="taskTextOutsideRight taskTextOutside3  doneText3">Remove Chavurah - RT (commented out)    </text><text font-size="11" x="478.5" y="2439.5" text-height="20" class="taskText taskText3 ">Review/Rewrite     </text><text font-size="11" x="637" y="2463.5" text-height="20" class="taskTextOutsideRight taskTextOutside3 ">RT Receives Content      </text><text font-size="11" x="657" y="2487.5" text-height="20" class="taskTextOutsideRight taskTextOutside3 ">RT Edits, Uploads, Tests </text><text font-size="11" x="209.5" y="2511.5" text-height="20" class="taskText taskText0 ">Assign      </text><text font-size="11" x="478.5" y="2535.5" text-height="20" class="taskText taskText0 ">Write       </text><text font-size="11" x="637" y="2559.5" text-height="20" class="taskTextOutsideRight taskTextOutside0 ">RT Receives Content </text><text font-size="11" x="657" y="2583.5" text-height="20" class="taskTextOutsideRight taskTextOutside0 ">RT Edits, Uploads, Tests    </text><text font-size="11" x="209.5" y="2607.5" text-height="20" class="taskText taskText1 ">Assign      </text><text font-size="11" x="478.5" y="2631.5" text-height="20" class="taskText taskText1 ">Write       </text><text font-size="11" x="637" y="2655.5" text-height="20" class="taskTextOutsideRight taskTextOutside1 ">RT Receives Content </text><text font-size="11" x="657" y="2679.5" text-height="20" class="taskTextOutsideRight taskTextOutside1 ">RT Edits, Uploads, Tests    </text></g><g><text x="10" y="110" class="sectionTitle sectionTitle0">Mission Statement</text><text x="10" y="218" class="sectionTitle sectionTitle1">Contact Us</text><text x="10" y="314" class="sectionTitle sectionTitle2">Who's Who</text><text x="10" y="410" class="sectionTitle sectionTitle3">Committees</text><text x="10" y="506" class="sectionTitle sectionTitle0">Stay Connected</text><text x="10" y="602" class="sectionTitle sectionTitle1">Judaica</text><text x="10" y="698" class="sectionTitle sectionTitle2">Tikkun Olam</text><text x="10" y="818" class="sectionTitle sectionTitle3">Contributions</text><text x="10" y="950" class="sectionTitle sectionTitle0">Mitzvot</text><text x="10" y="1070" class="sectionTitle sectionTitle1">Donate</text><text x="10" y="1202" class="sectionTitle sectionTitle2">Social Action </text><text x="10" y="1322" class="sectionTitle sectionTitle3">Service Etiquette</text><text x="10" y="1418" class="sectionTitle sectionTitle0">Services</text><text x="10" y="1514" class="sectionTitle sectionTitle1">Religious School</text><text x="10" y="1610" class="sectionTitle sectionTitle2">Nursery School</text><text x="10" y="1706" class="sectionTitle sectionTitle3">Confirmation Class</text><text x="10" y="1802" class="sectionTitle sectionTitle0">Adult Education</text><text x="10" y="1898" class="sectionTitle sectionTitle1">Library</text><text x="10" y="1994" class="sectionTitle sectionTitle2">Ritual</text><text x="10" y="2090" class="sectionTitle sectionTitle3">Sisterhood</text><text x="10" y="2162" class="sectionTitle sectionTitle0">Kadima</text><text x="10" y="2210" class="sectionTitle sectionTitle1">USY </text><text x="10" y="2306" class="sectionTitle sectionTitle2">Men's Club</text><text x="10" y="2438" class="sectionTitle sectionTitle3">Other Clubs</text><text x="10" y="2546" class="sectionTitle sectionTitle0">New Page - Facility Rentals</text><text x="10" y="2642" class="sectionTitle sectionTitle1">New Page - Mitzvah Gallery</text></g><g class="today"><line x1="510" x2="510" y1="25" y2="2715" class="today"></line></g><text x="642" y="25" class="titleText">Temple Sinai Web Site Review/Rewrite - 2020-06-19T14</text></svg>